<svg width="20" height="21" viewBox="0 0 20 21" fill="none" xmlns="http://www.w3.org/2000/svg">
<path d="M10 0.710938C4.50527 0.710938 0 4.37414 0 8.87938C0 8.98467 0.0421466 9.11096 0.126293 9.19511L6.61052 16.1004V19.7214C6.61052 20.2688 7.0527 20.7319 7.59999 20.7319H12.4C12.9473 20.7319 13.3895 20.2898 13.3895 19.7214V16.0794L19.8737 9.17409C19.9579 9.08995 20 8.98465 20 8.85836C20 4.37414 15.5158 0.710975 9.99998 0.710975L10 0.710938ZM7.36844 8.66885C7.62103 8.22667 8.56852 7.76366 10 7.76366C11.3895 7.76366 12.3369 8.22682 12.6106 8.64787C12.6947 8.75317 12.6737 8.90046 12.6316 9.00575L11.0526 14.1216H8.94737L7.34741 8.9847C7.32626 8.87955 7.30526 8.75326 7.36841 8.66897L7.36844 8.66885ZM7.60002 14.1215C7.13687 14.1215 6.77897 14.4372 6.65269 14.8584L0.989521 8.79524C1.07367 8.35306 2.10531 7.74261 3.68426 7.74261C5.34735 7.74261 6.27371 8.37423 6.42115 8.8584L8.06326 14.1216L7.60002 14.1215ZM11.2842 18.2689L10.2948 19.3425C10.2316 19.4267 10.1263 19.4688 10.021 19.4688C9.91574 19.4688 9.81045 19.4267 9.74731 19.3425L8.73682 18.2689C8.61052 18.1214 8.61052 17.8688 8.75782 17.7426C8.90526 17.5951 9.15786 17.6163 9.28413 17.7636L9.62101 18.1424L9.62116 15.7216C9.62116 15.511 9.7896 15.3427 10 15.3427C10.2106 15.3427 10.3789 15.5111 10.3789 15.7216V18.1425L10.7368 17.7637C10.8631 17.6162 11.1157 17.5952 11.2631 17.7427C11.4105 17.89 11.4315 18.1215 11.2842 18.2688V18.2689ZM13.3474 14.8584C13.2211 14.4374 12.8421 14.1215 12.4 14.1215H11.979L13.6001 8.85829C13.7686 8.31096 14.6527 7.7425 16.337 7.7425C17.916 7.7425 18.9264 8.35295 19.0107 8.79513L13.3474 14.8584Z" fill="white"/>
</svg>
