<svg width="35" height="35" viewBox="0 0 35 35" fill="none" xmlns="http://www.w3.org/2000/svg">
<g clip-path="url(#clip0_292_48)">
<path d="M29.629 6.55098C27.3981 5.54381 25.006 4.80178 22.5049 4.37678C22.4594 4.36858 22.4139 4.38907 22.3904 4.43008C22.0827 4.9685 21.7419 5.67091 21.5033 6.22299C18.8131 5.8267 16.1368 5.8267 13.5017 6.22299C13.263 5.65863 12.9099 4.9685 12.6008 4.43008C12.5774 4.39045 12.5319 4.36996 12.4863 4.37678C9.98654 4.80043 7.59436 5.54246 5.36219 6.55098C5.34287 6.55918 5.32631 6.57286 5.31532 6.59062C0.777863 13.2608 -0.465136 19.767 0.144638 26.1925C0.147397 26.224 0.165331 26.2541 0.190164 26.2732C3.18385 28.4365 6.08374 29.7497 8.92978 30.6202C8.97533 30.6339 9.0236 30.6176 9.05258 30.5805C9.72581 29.6759 10.3259 28.7222 10.8405 27.719C10.8709 27.6602 10.8419 27.5905 10.7798 27.5673C9.8279 27.2121 8.9215 26.7788 8.04961 26.2869C7.98064 26.2472 7.97511 26.1503 8.03857 26.1037C8.22204 25.9684 8.40557 25.8277 8.58077 25.6856C8.61246 25.6597 8.65664 25.6541 8.6939 25.6705C14.4219 28.2438 20.623 28.2438 26.2835 25.6705C26.3207 25.6528 26.3649 25.6582 26.398 25.6842C26.5732 25.8264 26.7568 25.9684 26.9415 26.1037C27.005 26.1503 27.0009 26.2472 26.9319 26.2869C26.06 26.7884 25.1536 27.2121 24.2003 27.566C24.1383 27.5892 24.1106 27.6602 24.141 27.719C24.6667 28.7207 25.2668 29.6746 25.9276 30.5792C25.9551 30.6176 26.0049 30.6339 26.0504 30.6202C28.9101 29.7497 31.81 28.4365 34.8037 26.2732C34.83 26.2541 34.8466 26.2254 34.8494 26.194C35.5791 18.7653 33.627 12.3124 29.6745 6.59197C29.6648 6.57286 29.6484 6.55918 29.629 6.55098ZM11.6959 22.2801C9.97135 22.2801 8.5504 20.7222 8.5504 18.809C8.5504 16.8958 9.94379 15.338 11.6959 15.338C13.4617 15.338 14.8689 16.9095 14.8413 18.809C14.8413 20.7222 13.4479 22.2801 11.6959 22.2801ZM23.3256 22.2801C21.6013 22.2801 20.1803 20.7222 20.1803 18.809C20.1803 16.8958 21.5736 15.338 23.3256 15.338C25.0915 15.338 26.4986 16.9095 26.4711 18.809C26.4711 20.7222 25.0915 22.2801 23.3256 22.2801Z" fill="#1E1E1E"/>
</g>
<defs>
<clipPath id="clip0_292_48">
<rect width="35" height="35" fill="white"/>
</clipPath>
</defs>
</svg>
