<svg width="312" height="312" viewBox="0 0 312 312" fill="none" xmlns="http://www.w3.org/2000/svg">
<path d="M209.93 97.5C201.094 43.0828 180.253 4.875 156 4.875C131.747 4.875 110.906 43.0828 102.07 97.5H209.93ZM97.5 156C97.5 169.528 98.2313 182.508 99.5109 195H212.428C213.708 182.508 214.439 169.528 214.439 156C214.439 142.472 213.708 129.492 212.428 117H99.5109C98.2313 129.492 97.5 142.472 97.5 156ZM295.364 97.5C277.936 56.1234 242.653 24.1313 199.083 11.2125C213.952 31.8094 224.189 62.8266 229.552 97.5H295.364ZM112.856 11.2125C69.3469 24.1313 34.0031 56.1234 16.6359 97.5H82.4484C87.75 62.8266 97.9875 31.8094 112.856 11.2125V11.2125ZM301.884 117H231.989C233.269 129.797 234 142.898 234 156C234 169.102 233.269 182.203 231.989 195H301.823C305.175 182.508 307.064 169.528 307.064 156C307.064 142.472 305.175 129.492 301.884 117ZM78 156C78 142.898 78.7313 129.797 80.0109 117H10.1156C6.825 129.492 4.875 142.472 4.875 156C4.875 169.528 6.825 182.508 10.1156 195H79.95C78.7312 182.203 78 169.102 78 156V156ZM102.07 214.5C110.906 268.917 131.747 307.125 156 307.125C180.253 307.125 201.094 268.917 209.93 214.5H102.07ZM199.144 300.788C242.653 287.869 277.997 255.877 295.425 214.5H229.612C224.25 249.173 214.012 280.191 199.144 300.788ZM16.6359 214.5C34.0641 255.877 69.3469 287.869 112.917 300.788C98.0484 280.191 87.8109 249.173 82.4484 214.5H16.6359V214.5Z" fill="#FAE6A7"/>
</svg>
