<svg width="34" height="24" viewBox="0 0 34 24" fill="none" xmlns="http://www.w3.org/2000/svg">
<path d="M11.3221 3.62078C11.3221 5.62073 9.70081 7.24179 7.70109 7.24179C5.70138 7.24179 4.08008 5.62073 4.08008 3.62078C4.08008 1.62107 5.70138 0 7.70109 0C9.70081 0 11.3221 1.62107 11.3221 3.62078Z" fill="white"/>
<path d="M14.246 15.1806C12.714 14.345 11.7392 12.6738 11.7392 10.8634C11.7392 10.6545 11.7392 10.3758 11.8089 10.1669C10.6252 9.47053 9.23242 9.05273 7.77012 9.05273C4.00991 9.05273 0.946243 11.6292 0.0408102 15.1108C-0.16809 15.8073 0.458611 16.5034 1.15502 16.5034H11.461C12.2266 15.877 13.2016 15.4592 14.2461 15.1806H14.246Z" fill="white"/>
<path d="M29.287 3.62078C29.287 5.62073 27.6656 7.24179 25.6659 7.24179C23.6662 7.24179 22.0449 5.62073 22.0449 3.62078C22.0449 1.62107 23.6662 0 25.6659 0C27.6656 0 29.287 1.62107 29.287 3.62078Z" fill="white"/>
<path d="M33.3942 15.0405C32.5586 11.5589 29.4251 8.98242 25.7347 8.98242C24.2724 8.98242 22.8798 9.40022 21.6959 10.0966C21.7656 10.3055 21.7656 10.5144 21.7656 10.7931C21.7656 12.6732 20.7211 14.2746 19.2588 15.1102C20.3033 15.3889 21.2086 15.8067 22.0442 16.4334H32.3501C32.9766 16.4331 33.5336 15.7367 33.3944 15.0405H33.3942Z" fill="white"/>
<path d="M20.3036 10.7929C20.3036 12.7926 18.6823 14.4139 16.6825 14.4139C14.6828 14.4139 13.0615 12.7926 13.0615 10.7929C13.0615 8.79318 14.6828 7.17188 16.6825 7.17188C18.6823 7.17188 20.3036 8.79318 20.3036 10.7929Z" fill="white"/>
<path d="M16.6839 16.2236C12.9237 16.2236 9.85999 18.8001 9.02439 22.2817C8.88521 22.9782 9.44219 23.6743 10.1386 23.6743H23.2993C24.0652 23.6743 24.6224 22.9779 24.4135 22.2817C23.508 18.8001 20.4442 16.2236 16.6842 16.2236H16.6839Z" fill="white"/>
</svg>
