<svg id="Layer_1" data-name="Layer 1" xmlns="http://www.w3.org/2000/svg" viewBox="0 0 646.57 677.95"><defs><style>.cls-1{fill:#231f20;}.cls-2{fill:#4d4d4f;}.cls-3{fill:#414042;}.cls-4{fill:#393839;}.cls-5{fill:#ba1b2d;}.cls-6{fill:#c3182c;}.cls-7{fill:none;}</style></defs><path class="cls-1" d="M526.13,405.14l-.16,0,.22-.05Zm51-15.69c-6.28-2.48-15.09-3.64-27.3-2.76-8.58.6-20.08,2.92-34.15,6.05l-15.07,3.41c-.69.16-1.39.32-2.08.51q-6.21,1.41-12.89,2.9l-3.36.74-10.4,2.25-2.44.51-1,.21-1.38.29-.64.13h-.07l-2,.42-2.09.42h-.07c-36.86,7.49-81.6,14.47-131.3,14.47-67.43,0-137-15.46-185-26.41-25.31-5.79-44.62-10.31-54.47-10.68-8.47-.3-16.58-.47-23,1.25-8,2.13-13.31,7.19-13.31,18.5a22,22,0,0,0,1.23,6.44c9.28,28.72,73.28,107.45,260.42,110.34C505,521.4,579.66,441.4,590.16,417.38l.31-.73c.19-.47.36-.92.49-1.35s.24-.82.33-1.19a8.09,8.09,0,0,0,.2-1.48C591.62,403,588.56,394,577.18,389.45ZM510,408.69l.23-.05,1.12-.26.27-.06.57-.12-.58.13-1.38.31-.24.06-.32.07Zm-3.32.75.76-.17.91-.21.51-.11-.52.12-.9.2-.77.18-.75.17Zm-3.94.9-1.18.28h0Zm-364.47-4.79.53.12.23.06-.76-.17-2-.46.9.2Zm-5.55-1.27.91.21-.91-.2-.32-.08ZM95.65,397l.25,0,.15,0Zm14.58,2.43h0l-2.34-.46-1-.2.65.12,1.35.26.19,0,2.08.41.07,0Zm7.35,1.53-1-.22-.38-.09-.11,0-.82-.17-.68-.14-.6-.13.59.12h.06l1.44.3.12,0,1.42.3.29.07Zm1.57.34-.94-.21.93.2.09,0,1.09.24Zm4.88,1.07-.36-.08.35.07,1.68.38Zm390.78,5.28-.28.06.29-.07.37-.08Zm12.88-2.79.42-.09h0Zm10.77-2,.26-.05.93-.15Zm26.34-1.4H565l.22,0,.18,0ZM460.42,373.2c13.07-2.62,25.15-5.33,36.14-7.84.69-.16,1.39-.32,2.09-.46,5.3-1.23,10.36-2.39,15.13-3.45-2.2-33.66-5.63-81.6-8.11-95.51-3.94-22.09-38.67-106.54-172-106.54-81.41,0-124.88,19.12-148.54,43.16a91.87,91.87,0,0,0-7.17,8.14c23.93-19,63.27-33.38,128.64-34.8,1.67,0,3.33-.07,5.05-.07-1.58,0-3.13,0-4.68.1-65.42,1.48-104.83,15.81-128.82,34.77-10.36,13.17-15.76,27.28-18.82,40.24-6.1,25.82-9.93,77-11.87,110.34,47.94,10.92,116.74,26,183.45,26C379.8,387.32,423.91,380.55,460.42,373.2Zm6.66,30.36h.06l1.32-.28Zm-364.61-5.62-.21,0,.17,0,.69.11Zm425.64,6.79h0l.54-.11Zm2.61-.52-.31.07.43-.09Z"/><path class="cls-2" d="M513.78,361.45c-4.77,1.06-9.83,2.22-15.13,3.45-.7.14-1.4.3-2.09.46-2.16-32.06-5.08-70.77-7.26-83-3.87-21.75-37.53-103.76-165.46-106.47-1.81-.05-3.67-.07-5.52-.07h-.65c-2,0-4.06,0-6.05,0-1.72,0-3.38,0-5.05.07-65.37,1.42-104.71,15.79-128.64,34.8a91.87,91.87,0,0,1,7.17-8.14c23.66-24,67.13-43.16,148.54-43.16,133.36,0,168.09,84.45,172,106.54C508.15,279.85,511.58,327.79,513.78,361.45Z"/><path class="cls-2" d="M498.65,364.9c-.7.14-1.4.3-2.09.46-11,2.51-23.07,5.22-36.14,7.84-36.51,7.35-80.62,14.12-129.54,14.12-66.71,0-135.51-15.12-183.45-26,1.94-33.35,5.77-84.52,11.87-110.34,3.06-13,8.46-27.07,18.82-40.24,24-19,63.4-33.29,128.82-34.77,1.55-.05,3.1-.07,4.68-.1,2,0,4,0,6.05,0h.65c1.85,0,3.71,0,5.52.07,129.62,2.27,163.63,84.65,167.55,106.47C493.57,294.52,496.49,332.91,498.65,364.9Z"/><path class="cls-3" d="M501.59,411.1,484,427l-34.32,31-.6.55-1.19-.09L418.32,456l-75.09-6.22h0l-95.83-8h0l-74.53-6.18-7-11.09-9.37-14.82h0l0,0L145.83,393s0-.12,0-.38c48,10.95,117.6,26.41,185,26.41,49.7,0,94.44-7,131.3-14.47h.07l2.09-.42,2-.42h.07l.64-.13h.06l1.32-.28,1-.21,2.44-.51,10.4-2.25,3.36-.74q6.68-1.49,12.89-2.9c.69-.19,1.39-.35,2.08-.51.37,5.75.65,10.29.81,13.12,0,.51.07,1,.1,1.34h0C501.57,410.81,501.59,411,501.59,411.1Z"/><path class="cls-4" d="M460.42,373.2c-36.51,7.35-80.62,14.12-129.54,14.12-66.71,0-135.51-15.12-183.45-26,1.94-33.35,5.77-84.52,11.87-110.34,3.06-13,8.46-27.07,18.82-40.24,24-19,63.4-33.29,128.82-34.77,113.19,3.45,143.05,84.75,146.5,106.4C455.57,295.59,458.45,339.93,460.42,373.2Z"/><path class="cls-1" d="M462.53,411.1l-9.88,10h0L437.5,436.49,418.32,456l-2.52,2.55L324.11,450,261,444.09l-91.2-8.49-6.48-11.49-8.31-14.73h0L145.83,393s0-.12,0-.38c48,10.95,117.6,26.41,185,26.41,49.7,0,94.44-7,131.3-14.47C462.34,407.53,462.46,409.75,462.53,411.1Z"/><path class="cls-5" d="M591.49,412.63a8.09,8.09,0,0,1-.2,1.48c-.09.37-.19.77-.33,1.19s-.3.88-.49,1.35l-.31.73a20.72,20.72,0,0,0-1.32-3.2,2,2,0,0,0-.14-.25,1.24,1.24,0,0,0-.1-.2,1.92,1.92,0,0,0-.18-.31l-.06-.13a18.78,18.78,0,0,0-2.05-2.89l-.06-.06c-.16-.19-.33-.38-.5-.56a6.88,6.88,0,0,0-.53-.55l-.13-.12s0,0,0,0l-.54-.51-.66-.57c-.4-.33-.82-.65-1.27-1a25.56,25.56,0,0,0-5.66-3c-.51-.21-1-.39-1.56-.57a47.64,47.64,0,0,0-10.15-2.06l-.22,0c-.87-.09-1.77-.16-2.69-.22l-1.39-.07q-3.34-.14-7.15,0l-1.88.09-2,.13-1.8.15c-1.63.15-3.37.36-5.19.62-.63.08-1.27.18-1.92.28l-1.32.21c-.31,0-.61.09-.93.15q-3.72.62-7.88,1.44l-.12,0-1.23.25-.85.17-.53.1h0l-.41.08-1.5.31h-.06l-.16,0-.66.14-3.3.7-6.82,1.5-.37.08h0l-.28.06-1.29.29h0l-.25,0-.77.18-.57.12-.27.06-1.12.26-.23.05-.33.08-.81.18-.51.11-.91.21-.76.17-.76.18-1.33.3-1.19.27-.66.15-1.18.27-2.11.49-.73.16q-5.24,1.2-10.81,2.45l-4,.89c-3.1.69-6.27,1.39-9.52,2.08l-1.49.32q-5.24,1.13-10.7,2.23-4.68.94-9.54,1.88c-3.28.63-6.61,1.26-10,1.87l-3.41.61q-3.42.62-6.91,1.19l-4.91.8-5,.78q-4.31.67-8.73,1.29l-3,.41q-7.69,1.05-15.69,1.95-3.81.42-7.69.81-4.9.49-9.91.91l-4.5.35c-1.1.09-2.2.17-3.31.24-1.35.1-2.7.19-4.06.27q-5.76.38-11.65.62c-1.34.05-2.68.11-4,.15l-4.09.13-1.27,0H344c-1,0-2,.06-3,.07-1.31,0-2.63,0-3.95.06-.64,0-1.27,0-1.91,0l-4.26,0-3.75,0-1.45,0-3.94-.05-1.85-.05c-1.74,0-3.48-.09-5.22-.15-.8,0-1.61-.05-2.41-.09l-.73,0-.41,0-.63,0c-1.27,0-2.54-.1-3.8-.17q-6.22-.31-12.44-.77c-1.21-.08-2.42-.17-3.63-.28-2.78-.21-5.57-.46-8.35-.72l-4.51-.43q-5.89-.6-11.76-1.3l-3.54-.43c-30.46-3.76-59.67-9.37-85.32-14.89l-2.23-.48-2.39-.52-1.29-.28-3.87-.85c-.64-.13-1.28-.27-1.91-.42l-9-2-1.1-.23-.25-.05-.73-.17-4.93-1.12-1.33-.3-.46-.11-.75-.17-4.73-1.08-2.47-.56-.61-.14-.76-.17h0l-1.1-.25-.9-.2-2-.45-.68-.16-.91-.2h0l-.32-.07-4.16-.93-.43-.1-.4-.09-.73-.17-1-.22-1.67-.37-.36-.08-3.35-.74-1.09-.24h-.09l-.93-.2-.34-.07-.29-.06h0l-1.42-.3-.11,0h0l-.81-.16-.63-.14h-.06l-.59-.12-2.76-.57-.07,0-2.08-.41-.19,0-1.35-.26-.65-.12-2.32-.43-1.06-.19-.35-.06-.65-.11-.21,0q-3.41-.59-6.21-.91l-.15,0-.25,0-.26,0-1.88-.18-1.07-.08-1.06-.05-3.1-.1-2-.05-1.41,0-1.88,0h-.33c-.81,0-1.62,0-2.41,0H79.6c-.8,0-1.58.08-2.36.12l-1.33.07c-.69.05-1.36.12-2,.2l-1.08.14c-.58.08-1.15.16-1.71.26l-.91.17-.89.2c-.83.2-1.64.42-2.42.68h0l-.09,0a1.14,1.14,0,0,0-.26.09l-.24.09-.32.11-.78.31c-.39.16-.76.34-1.13.53-.19.1-.39.19-.58.3-.41.21-.8.44-1.19.69l-.08.05c-.32.21-.63.44-.94.67s-.59.48-.87.73-.33.3-.48.46a.28.28,0,0,0-.1.09l-.39.41a3.58,3.58,0,0,0-.26.29c-.11.12-.21.24-.31.37-.24.29-.46.59-.67.9s-.24.35-.35.53c-.23.37-.45.76-.65,1.16-.07.13-.14.27-.2.41a8.25,8.25,0,0,0-.37.86c-.11.24-.2.49-.29.74a22,22,0,0,1-1.23-6.44c0-11.31,5.34-16.37,13.31-18.5,6.42-1.72,14.53-1.55,23-1.25,9.85.37,29.16,4.89,54.47,10.68,48,10.95,117.6,26.41,185,26.41,49.7,0,94.44-7,131.3-14.47h.07l2.09-.42,2-.42h.07l.64-.13h.06l1.32-.28,1-.21,2.44-.51,10.4-2.25,3.36-.74q6.68-1.49,12.89-2.9c.69-.19,1.39-.35,2.08-.51l15.07-3.41c14.07-3.13,25.57-5.45,34.15-6.05,12.21-.88,21,.28,27.3,2.76C588.56,394,591.62,403,591.49,412.63Z"/><path class="cls-3" d="M590.17,417.38c-10.5,24-85.17,104-273.45,101.09-187.14-2.9-251.14-81.62-260.41-110.34,4.26-12.19,19.1-12.1,35.07-11.52,28.49,1,136.51,37.09,239.51,37.09s184.64-29.93,219-32.36C576.31,399.46,586.83,407,590.17,417.38Z"/><path class="cls-4" d="M590.17,417.38c-10.5,24-85.17,104-273.45,101.09-187.14-2.9-251.14-81.62-260.41-110.34,4.26-12.19,19.1-12.1,35.07-11.52,28.49,1,136.51,37.09,239.51,37.09s184.64-29.93,219-32.36C576.31,399.46,586.83,407,590.17,417.38Z"/><path class="cls-1" d="M514.26,438.32c-7.52,17.18-60.95,74.43-195.68,72.34-133.92-2.07-179.72-58.41-186.36-79,3.05-8.73,13.67-8.66,25.1-8.25C177.71,424.2,255,450,328.71,450s132.13-21.42,156.71-23.16C504.34,425.49,511.87,430.9,514.26,438.32Z"/><path class="cls-6" d="M467.08,403.56l1.38-.29-1.32.28Z"/><path class="cls-6" d="M482.33,400.3q-5.07,1.13-10.4,2.25Z"/><line class="cls-7" x1="462.53" y1="409.27" x2="462.25" y2="404.54"/></svg>