<svg width="425" height="427" viewBox="0 0 425 427" fill="none" xmlns="http://www.w3.org/2000/svg">
<g clip-path="url(#clip0_331_162)">
<path d="M424.2 381C422.81 383.18 420.96 381.7 419.25 381.26C412.25 379.47 410.11 381.76 412.1 389C412.7 391.22 412.34 392.29 409.98 392C408.22 391.76 406.57 393.25 405.26 392.9C396.79 390.63 397.52 396.17 397.67 401.44C397.997 409.746 397.264 418.059 395.49 426.18H2.71027C2.27027 419.987 1.85027 413.8 1.45027 407.62C-0.282583 379.021 -0.476196 350.35 0.870268 321.73C2.00027 295.08 4.92027 268.35 15.0003 243.06C17.7803 236.06 22.8703 231.54 28.5903 227.57C45.0003 216.16 62.3103 206.25 81.0003 199.1C85.1103 197.53 86.7903 195.67 85.8903 190.89C82.5103 172.89 82.3403 154.83 86.5603 136.96C88.5603 128.4 84.9803 119.67 87.9803 111.24C88.4603 109.89 88.3303 108.24 89.0403 107.07C96.5403 94.59 94.7403 80.69 95.2203 67.15C95.3694 65.921 95.243 64.6741 94.8503 63.5C91.7703 56.85 93.6603 50.59 96.1503 44.38C97.6203 40.72 98.5403 37.38 97.0103 33.2C95.0903 27.9 98.0703 23.35 102.4 20.46C111.51 14.37 120.03 7.51001 129.62 1.94001C135.62 -1.51999 138.5 0.33001 143.1 2.25001C149.04 4.73001 154.73 7.17001 158.21 13.1C159.52 15.35 161.72 14.78 163.59 13.42C179.25 2.08001 196.89 2.81001 214.59 5.63001C224.19 7.17001 232.86 11.89 240.75 17.57C243.75 19.73 247.37 20.44 250.09 23.32C257.31 30.94 258.64 39.71 258.09 49.81C257.74 55.99 260.41 62.29 261.29 68.6C262.2 75.08 263.36 81.65 259.14 87.7C257.71 89.76 258.14 92.54 258.58 94.97C260.09 103.17 259.5 111.42 259.35 119.65C259.26 124.36 258.59 129.04 255.53 133.09C253.61 135.61 253.81 138.91 253.28 141.95C251.23 153.64 250.37 165.82 240.81 174.68C238.39 176.93 238.97 179.07 241.81 180.59C256.31 188.35 269.55 198.59 286.71 200.84C295.21 201.94 295.48 202.49 298.52 194.64C301.071 187.897 303.209 181.004 304.92 174C309.43 156.2 318.07 139.76 322.04 121.77C322.71 118.7 323.57 116.68 319.12 118.32C315.12 119.79 312.4 117.45 310.12 114.67C308.68 112.93 307.12 110.76 308.48 108.52C309.84 106.28 311.76 108.33 313.4 108.83C316.89 109.92 319.01 107.83 320.51 105.3C322.77 101.53 325.26 98.3 329.35 96.2C333 94.28 334.05 90.2 332.72 86.45C328.18 73.77 332.12 63.45 340.15 53.5C344.91 47.62 348.43 40.75 352.66 34.42C354.13 32.23 356 29.61 359.12 30.94C362.47 32.38 361.12 35.45 360.58 38C358.33 48.73 358.58 59.72 357.1 70.53C356.19 77.06 354.64 82.92 349.1 87.23C347.078 88.9751 345.385 91.0681 344.1 93.41C341.47 97.79 340.58 101.41 345.95 105.41C353.77 111.25 355.16 119.06 350.95 128.71C346.74 138.36 344.7 147.8 349.58 157.82C351.4 161.57 349.15 162.89 345.8 162.31C340.32 161.31 337.07 157.84 336.25 152.38C336.052 150.108 336.032 147.825 336.19 145.55C335.38 138.82 337.09 133.11 339.42 127.55C340.608 124.908 341.156 122.023 341.02 119.13C340.9 117.32 341.24 114.77 339.13 114.36C336.49 113.85 336.13 116.7 335.45 118.51C334.57 120.81 334.09 123.26 333.34 125.61C325.547 149.943 317.744 174.277 309.93 198.61C307.31 206.77 307.28 206.87 315.4 210.43C335.417 219.028 354.604 229.441 372.72 241.54C390.72 253.75 399.25 270.73 402.51 291.27C405.4 309.45 406.38 327.71 403.83 346.03C403.76 347.266 403.486 348.483 403.02 349.63C400.62 354.3 402.79 356.82 406.79 358.99C413.979 362.718 419.817 368.608 423.48 375.83C424.29 377.49 425.34 379.23 424.2 381Z" fill="#BA1B2D"/>
</g>
<defs>
<clipPath id="clip0_331_162">
<rect width="424.7" height="426.17" fill="white"/>
</clipPath>
</defs>
</svg>
