<svg width="22" height="22" viewBox="0 0 22 22" fill="none" xmlns="http://www.w3.org/2000/svg">
<path d="M11.0003 0.166992C13.9437 0.166992 14.311 0.177825 15.4658 0.231992C16.6196 0.286159 17.405 0.467076 18.0962 0.735742C18.8112 1.01091 19.4135 1.38358 20.0158 1.98483C20.5667 2.52638 20.9929 3.18146 21.2649 3.90449C21.5325 4.59458 21.7145 5.38108 21.7687 6.53483C21.8196 7.68966 21.8337 8.05691 21.8337 11.0003C21.8337 13.9437 21.8228 14.311 21.7687 15.4658C21.7145 16.6196 21.5325 17.405 21.2649 18.0962C20.9937 18.8196 20.5674 19.4748 20.0158 20.0158C19.4741 20.5665 18.8191 20.9927 18.0962 21.2649C17.4061 21.5325 16.6196 21.7145 15.4658 21.7687C14.311 21.8196 13.9437 21.8337 11.0003 21.8337C8.05691 21.8337 7.68966 21.8228 6.53483 21.7687C5.38108 21.7145 4.59566 21.5325 3.90449 21.2649C3.18118 20.9935 2.52598 20.5672 1.98483 20.0158C1.43385 19.4744 1.00758 18.8193 0.735742 18.0962C0.467076 17.4061 0.286159 16.6196 0.231992 15.4658C0.181075 14.311 0.166992 13.9437 0.166992 11.0003C0.166992 8.05691 0.177825 7.68966 0.231992 6.53483C0.286159 5.37999 0.467076 4.59566 0.735742 3.90449C1.00683 3.18102 1.4332 2.52576 1.98483 1.98483C2.52614 1.43366 3.18129 1.00737 3.90449 0.735742C4.59566 0.467076 5.37999 0.286159 6.53483 0.231992C7.68966 0.181075 8.05691 0.166992 11.0003 0.166992ZM11.0003 5.58366C9.56374 5.58366 8.18599 6.15434 7.17016 7.17016C6.15434 8.18599 5.58366 9.56374 5.58366 11.0003C5.58366 12.4369 6.15434 13.8147 7.17016 14.8305C8.18599 15.8463 9.56374 16.417 11.0003 16.417C12.4369 16.417 13.8147 15.8463 14.8305 14.8305C15.8463 13.8147 16.417 12.4369 16.417 11.0003C16.417 9.56374 15.8463 8.18599 14.8305 7.17016C13.8147 6.15434 12.4369 5.58366 11.0003 5.58366V5.58366ZM18.042 5.31283C18.042 4.95368 17.8993 4.60924 17.6454 4.35529C17.3914 4.10133 17.047 3.95866 16.6878 3.95866C16.3287 3.95866 15.9842 4.10133 15.7303 4.35529C15.4763 4.60924 15.3337 4.95368 15.3337 5.31283C15.3337 5.67197 15.4763 6.01641 15.7303 6.27037C15.9842 6.52432 16.3287 6.66699 16.6878 6.66699C17.047 6.66699 17.3914 6.52432 17.6454 6.27037C17.8993 6.01641 18.042 5.67197 18.042 5.31283ZM11.0003 7.75033C11.8623 7.75033 12.6889 8.09274 13.2984 8.70223C13.9079 9.31172 14.2503 10.1384 14.2503 11.0003C14.2503 11.8623 13.9079 12.6889 13.2984 13.2984C12.6889 13.9079 11.8623 14.2503 11.0003 14.2503C10.1384 14.2503 9.31172 13.9079 8.70223 13.2984C8.09274 12.6889 7.75033 11.8623 7.75033 11.0003C7.75033 10.1384 8.09274 9.31172 8.70223 8.70223C9.31172 8.09274 10.1384 7.75033 11.0003 7.75033V7.75033Z" fill="#FAE6A7"/>
</svg>
