<svg width="25" height="25" viewBox="0 0 25 25" fill="none" xmlns="http://www.w3.org/2000/svg">
<path d="M5.81948 8.04297H0.800687C0.577945 8.04297 0.397461 8.22353 0.397461 8.44619V24.5694C0.397461 24.7922 0.577945 24.9726 0.800687 24.9726H5.81948C6.04222 24.9726 6.2227 24.7922 6.2227 24.5694V8.44619C6.2227 8.22353 6.04222 8.04297 5.81948 8.04297Z" fill="#FAE6A7"/>
<path d="M3.31177 0.0273438C1.48565 0.0273438 0 1.51138 0 3.33549C0 5.16041 1.48565 6.64501 3.31177 6.64501C5.13645 6.64501 6.62089 5.16033 6.62089 3.33549C6.62097 1.51138 5.13645 0.0273438 3.31177 0.0273438Z" fill="#FAE6A7"/>
<path d="M18.5849 7.6416C16.5692 7.6416 15.0791 8.50813 14.1753 9.49273V8.44555C14.1753 8.22289 13.9948 8.04233 13.7721 8.04233H8.96573C8.74298 8.04233 8.5625 8.22289 8.5625 8.44555V24.5688C8.5625 24.7915 8.74298 24.972 8.96573 24.972H13.9735C14.1963 24.972 14.3768 24.7915 14.3768 24.5688V16.5915C14.3768 13.9034 15.1069 12.8561 16.9808 12.8561C19.0216 12.8561 19.1838 14.535 19.1838 16.7298V24.5689C19.1838 24.7916 19.3643 24.9721 19.587 24.9721H24.5967C24.8194 24.9721 24.9999 24.7916 24.9999 24.5689V15.725C24.9999 11.7278 24.2377 7.6416 18.5849 7.6416Z" fill="#FAE6A7"/>
</svg>
