<svg width="110" height="110" viewBox="0 0 110 110" fill="none" xmlns="http://www.w3.org/2000/svg">
<circle cx="55" cy="55" r="55" fill="#BA1B2D"/>
<path d="M80.7727 42.9551L75.0834 33.8733C74.575 33.058 73.672 32.5583 72.7078 32.5583H37.2922C36.3279 32.5583 35.425 33.058 34.9165 33.8733L29.2272 42.9551C26.2905 47.645 28.8941 54.1671 34.3818 54.9122C34.7762 54.9648 35.1795 54.9911 35.5827 54.9911C38.1775 54.9911 40.4743 53.8515 42.0522 52.0895C43.6301 53.8515 45.9357 54.9911 48.5217 54.9911C51.1165 54.9911 53.4133 53.8515 54.9912 52.0895C56.5691 53.8515 58.8746 54.9911 61.4607 54.9911C64.0555 54.9911 66.3522 53.8515 67.9302 52.0895C69.5168 53.8515 71.8136 54.9911 74.3996 54.9911C74.8116 54.9911 75.2061 54.9648 75.6006 54.9122C81.1058 54.1759 83.7181 47.6538 80.7727 42.9551V42.9551ZM74.4172 57.8051C73.5405 57.8051 72.6727 57.6736 71.8311 57.472V66.2207H38.1688V57.472C37.3272 57.6648 36.4594 57.8051 35.5827 57.8051C35.0568 57.8051 34.522 57.77 34.0048 57.6999C33.5139 57.6298 33.0318 57.5158 32.5672 57.3843V74.6363C32.5672 76.1879 33.8207 77.4415 35.3724 77.4415H74.6451C76.1967 77.4415 77.4503 76.1879 77.4503 74.6363V57.3843C76.9769 57.5246 76.5035 57.6385 76.0126 57.6999C75.4779 57.77 74.9519 57.8051 74.4172 57.8051Z" fill="#FAE6A7"/>
</svg>
