<svg width="20" height="25" viewBox="0 0 20 25" fill="none" xmlns="http://www.w3.org/2000/svg">
<path d="M14.4193 5.95316H19.9512L13.9141 0.0698242V5.4667C13.914 5.73541 14.1403 5.95311 14.4192 5.95311L14.4193 5.95316Z" fill="white"/>
<path d="M10.5292 13.4824C10.4445 13.4668 10.2749 13.4595 10.0208 13.4595H9.67969V14.4241H10.0659C10.3448 14.4241 10.5303 14.4063 10.6248 14.3709C10.7191 14.3355 10.7921 14.2803 10.8458 14.2043C10.8994 14.1283 10.9262 14.0407 10.9262 13.9397C10.9262 13.8158 10.8887 13.7136 10.8136 13.6335C10.7384 13.5533 10.644 13.5023 10.5292 13.4824L10.5292 13.4824Z" fill="white"/>
<path d="M13.7891 13.4824C13.7043 13.4668 13.5348 13.4595 13.2806 13.4595L12.9395 13.4596V14.4242H13.3256C13.6045 14.4242 13.7901 14.4064 13.8845 14.371C13.9789 14.3356 14.0519 14.2804 14.1055 14.2044C14.1592 14.1284 14.186 14.0408 14.186 13.9398C14.186 13.8159 14.1484 13.7137 14.0734 13.6336C13.9983 13.5533 13.9038 13.5023 13.7891 13.4824L13.7891 13.4824Z" fill="white"/>
<path d="M6.34277 14.9377H7.29746L6.81585 13.6772L6.34277 14.9377Z" fill="white"/>
<path d="M19.8389 6.42506H19.8325L13.9101 6.424C13.6451 6.424 13.4296 6.2146 13.4296 5.95737V0.177164C13.4296 0.153239 13.4264 0.132406 13.4296 0.109456C13.4318 0.0959468 13.4274 0.082356 13.4296 0.0688477H1.5506C0.723532 0.0688477 0.0488281 0.722973 0.0488281 1.52718V23.4709C0.0488281 24.2741 0.723532 24.9293 1.5506 24.9293H18.4498C19.2769 24.9293 19.9516 24.2741 19.9516 23.4709V18.998L19.9517 9.99906V6.42406C19.9141 6.4335 19.8776 6.42406 19.8391 6.42406L19.8389 6.42506ZM7.82906 16.2824L7.52443 15.5105H6.12558L5.83704 16.2824H5.08725L6.44957 12.8844H7.19619L8.59715 16.2824H7.82906ZM11.5363 14.4563C11.458 14.598 11.3593 14.7104 11.2391 14.7917C11.1189 14.8729 10.9967 14.9261 10.8722 14.9532C10.7038 14.9855 10.4592 15.0022 10.1396 15.0022H9.67943V16.2834H8.97255V12.8855H10.1064C10.5366 12.8855 10.8166 12.9022 10.9463 12.9365C11.1469 12.9876 11.3142 13.098 11.4494 13.2688C11.5846 13.4396 11.6521 13.6605 11.6521 13.9303C11.6532 14.1386 11.6135 14.3136 11.5363 14.4563L11.5363 14.4563ZM14.7962 14.4563C14.7179 14.598 14.6192 14.7104 14.499 14.7917C14.3789 14.8729 14.2566 14.9261 14.1332 14.9532C13.9648 14.9855 13.7202 15.0022 13.4006 15.0022H12.9394V16.2834H12.2325V12.8855H13.3663C13.7954 12.8855 14.0765 12.9022 14.2062 12.9365C14.4069 12.9876 14.5741 13.098 14.7093 13.2688C14.8445 13.4396 14.912 13.6605 14.912 13.9303C14.9131 14.1386 14.8745 14.3136 14.7962 14.4563L14.7962 14.4563Z" fill="white"/>
</svg>
