<svg width="320" height="320" viewBox="0 0 320 320" fill="none" xmlns="http://www.w3.org/2000/svg">
<rect width="320" height="320" fill="#BA1B2D"/>
<path d="M141.216 189.968V168.752C146.151 164.914 150.591 160.638 154.538 155.923C158.486 151.208 161.611 146.219 163.913 140.956C166.216 135.584 167.367 130.047 167.367 124.345C167.367 120.288 166.6 117.383 165.064 115.628C163.639 113.764 161.501 112.832 158.65 112.832C156.019 112.832 153.935 113.6 152.4 115.135C150.975 116.67 150.262 118.808 150.262 121.549C150.262 123.303 150.427 124.893 150.756 126.319C151.194 127.634 151.688 129.06 152.236 130.595L128.059 136.187C127.182 133.555 126.469 131.033 125.921 128.621C125.482 126.099 125.263 123.468 125.263 120.727C125.263 111.078 128.169 103.567 133.98 98.1945C139.901 92.7122 148.343 89.9711 159.308 89.9711C170.382 89.9711 178.88 92.8767 184.801 98.6879C190.831 104.499 193.847 112.777 193.847 123.523C193.847 130.101 192.75 136.351 190.557 142.272C188.364 148.193 185.13 153.785 180.853 159.048C176.687 164.311 171.588 169.245 165.558 173.85V189.968H141.216ZM140.394 225V199.507H166.545V225H140.394Z" fill="#FAE6A7"/>
</svg>
