<svg width="914" height="2820" viewBox="0 0 914 2820" fill="none" xmlns="http://www.w3.org/2000/svg">
<path d="M1 4C108.304 31.95 91.1143 218.108 108.304 367.878C129.79 555.09 305.397 608.234 450.723 620.483C594.635 632.612 811.002 551.926 879.459 610.463C947.917 669 886.955 893.128 822.494 943.227C758.034 993.326 423.74 909.476 346.288 956.938C268.835 1004.4 90.0613 1190.74 108.304 1339.8C121.362 1446.5 108.304 1487.6 377.5 1540.5C522 1568.9 817.973 1507 878 1705.5C966 1996.5 105.5 1615.5 198 1915C244.56 2065.75 243 2122 130 2252.5C-40.6024 2449.52 807 2327.78 807 2473.5C807 2559 701.5 2495 601.5 2650C503.927 2801.24 152.16 2614.5 153.718 2819" stroke="#BA1B2D" stroke-width="7" stroke-dasharray="14 14"/>
</svg>
