<svg width="54" height="54" viewBox="0 0 54 54" fill="none" xmlns="http://www.w3.org/2000/svg">
<path d="M52.7727 14.9553L47.0834 5.87353C46.575 5.05827 45.672 4.55859 44.7078 4.55859H9.29216C8.32787 4.55859 7.42495 5.05827 6.91651 5.87353L1.22722 14.9553C-1.70947 19.6453 0.894105 26.1674 6.38177 26.9125C6.77625 26.9651 7.1795 26.9914 7.58274 26.9914C10.1775 26.9914 12.4743 25.8518 14.0522 24.0898C15.6301 25.8518 17.9357 26.9914 20.5217 26.9914C23.1165 26.9914 25.4133 25.8518 26.9912 24.0898C28.5691 25.8518 30.8746 26.9914 33.4607 26.9914C36.0555 26.9914 38.3522 25.8518 39.9302 24.0898C41.5168 25.8518 43.8136 26.9914 46.3996 26.9914C46.8116 26.9914 47.2061 26.9651 47.6006 26.9125C53.1058 26.1761 55.7181 19.654 52.7727 14.9553V14.9553ZM46.4172 29.8053C45.5405 29.8053 44.6727 29.6739 43.8311 29.4722V38.2209H10.1688V29.4722C9.32722 29.6651 8.45937 29.8053 7.58274 29.8053C7.05677 29.8053 6.52203 29.7703 6.00482 29.7002C5.51391 29.63 5.03177 29.5161 4.56716 29.3846V46.6365C4.56716 48.1881 5.82073 49.4417 7.37235 49.4417H46.6451C48.1967 49.4417 49.4503 48.1881 49.4503 46.6365V29.3846C48.9769 29.5248 48.5035 29.6388 48.0126 29.7002C47.4779 29.7703 46.9519 29.8053 46.4172 29.8053Z" fill="#FAE6A7"/>
</svg>
