<svg width="40" height="40" viewBox="0 0 40 40" fill="none" xmlns="http://www.w3.org/2000/svg">
<path d="M20.8849 0.03375C23.0662 0 25.2349 0.02 27.4012 0C27.5324 2.55125 28.4499 5.15 30.3174 6.95375C32.1812 8.8025 34.8174 9.64875 37.3824 9.935V16.6463C34.9787 16.5675 32.5637 16.0675 30.3824 15.0325C29.4324 14.6025 28.5474 14.0488 27.6812 13.4825C27.6699 18.3525 27.7012 23.2162 27.6499 28.0662C27.5199 30.3962 26.7512 32.715 25.3962 34.635C23.2162 37.8313 19.4324 39.915 15.5462 39.98C13.1624 40.1162 10.7812 39.4662 8.74993 38.2687C5.38368 36.2837 3.01493 32.65 2.66993 28.75C2.62993 27.9163 2.61618 27.0838 2.64993 26.27C2.94993 23.0988 4.51868 20.065 6.95368 18.0013C9.71368 15.5975 13.5799 14.4525 17.1999 15.13C17.2337 17.5988 17.1349 20.065 17.1349 22.5338C15.4812 21.9988 13.5487 22.1487 12.1037 23.1525C11.0487 23.8362 10.2474 24.8837 9.82993 26.0687C9.48493 26.9137 9.58368 27.8525 9.60368 28.75C9.99993 31.485 12.6299 33.7837 15.4374 33.535C17.2987 33.515 19.0824 32.435 20.0524 30.8538C20.3662 30.3 20.7174 29.7338 20.7362 29.0825C20.8999 26.1013 20.8349 23.1325 20.8549 20.1513C20.8687 13.4325 20.8349 6.7325 20.8862 0.035L20.8849 0.03375Z" fill="#FAE6A7"/>
</svg>
