<svg width="32" height="20" viewBox="0 0 32 20" fill="none" xmlns="http://www.w3.org/2000/svg">
<g clip-path="url(#clip0_243_199)">
<path d="M9.85809 18.2862C9.81972 18.2862 9.74274 18.3237 9.70437 18.3237C9.62739 18.3237 9.55066 18.3237 9.47368 18.2862L2.13221 15.0903L0.44084 15.6167C0.210144 15.692 0.210144 15.9927 0.402472 16.0677L9.20494 19.8652C9.55099 20.0155 9.89677 20.0155 10.2428 19.9405L20.8516 16.8575V15.2032L9.85809 18.2862Z" fill="white"/>
<path d="M31.6527 12.7602L30.4611 12.2339L26.6942 13.3241L22.8887 14.5271V16.1437L31.6139 13.4744C31.96 13.3616 31.9983 12.9106 31.6525 12.7602L31.6527 12.7602Z" fill="white"/>
<path d="M31.7681 9.90275L30.2304 9.22607L27.9625 9.90275L22.8887 11.4818V13.2864L31.7294 10.5794C32.0755 10.5041 32.1139 10.0531 31.7681 9.90275Z" fill="white"/>
<path d="M31.7678 6.89494L30.2302 6.21826L22.8887 8.47397V10.2786L31.7295 7.57162C32.0755 7.49656 32.1139 7.04551 31.7681 6.89494H31.7678Z" fill="white"/>
<path d="M31.7287 4.56422C32.0747 4.4514 32.1131 4.00035 31.767 3.85002L22.9263 0.0525601C22.8493 0.015032 22.7342 0.015032 22.6572 0.0525601L12.9707 3.02271L22.9265 7.30875L31.7287 4.56422Z" fill="white"/>
<path d="M9.47367 15.2792L2.13221 12.1211L0.44084 12.6474C0.210144 12.7227 0.210144 13.0234 0.402472 13.0985L9.24324 16.8957C9.55068 17.046 9.93507 17.046 10.2811 16.971L20.8899 14.0008V12.1587L9.85798 15.3167C9.74263 15.3543 9.58891 15.3543 9.47356 15.2792L9.47367 15.2792Z" fill="white"/>
<path d="M17.2765 8.92473C18.1606 8.66156 20.8129 8.02237 20.8129 8.02237L10.8188 3.73633C10.5881 3.81162 7.55136 4.5634 6.39837 4.90183L5.97559 5.01465C5.13 5.27782 2.93893 5.72885 0.325243 5.57852C-0.0208016 5.54099 -0.135903 6.02956 0.171526 6.14238L8.2438 9.63888C11.2416 10.8421 15.5081 9.41347 17.2767 8.92468L17.2765 8.92473Z" fill="white"/>
<path d="M20.8896 9.15111C20.8896 9.15111 17.5838 10.0535 16.0465 10.4669C15.6237 10.5798 15.3163 10.6548 15.2777 10.6548C15.2007 10.6923 15.124 10.6923 15.0086 10.7301C14.8933 10.7676 14.8165 10.7676 14.7012 10.8054C13.1251 11.1814 10.3961 11.6702 8.01267 10.7679C6.43664 10.1662 3.47695 8.88818 3.47695 8.88818L0.517012 9.71501C0.286316 9.7903 0.286316 10.091 0.478644 10.1661L2.40044 10.9931L9.20383 13.9258C9.54988 14.0761 9.89566 14.0761 10.2417 14.001L20.8505 10.9559V9.1512L20.8896 9.15111Z" fill="white"/>
</g>
<defs>
<clipPath id="clip0_243_199">
<rect width="32" height="20" fill="white"/>
</clipPath>
</defs>
</svg>
