<svg width="134" height="134" viewBox="0 0 134 134" fill="none" xmlns="http://www.w3.org/2000/svg">
<path d="M132.744 53.8711C127.713 27.5294 106.471 6.28721 80.1288 1.25541C33.0071 -7.74536 -7.74536 33.0071 1.25541 80.1288C6.28747 106.47 27.5296 127.713 53.8711 132.744C100.993 141.745 141.745 100.993 132.744 53.8711ZM98.0463 98.0463C96.4106 99.6821 94.2679 100.5 92.1249 100.5C89.982 100.5 87.8393 99.6821 86.2035 98.0463L61.0786 72.9213C59.5082 71.351 58.6249 69.2245 58.6249 66.9999V33.4999C58.6249 28.8707 62.3748 25.1249 66.9999 25.1249C71.625 25.1249 75.3749 28.8709 75.3749 33.4999V63.5322L98.0463 86.2035C101.318 89.475 101.318 94.7748 98.0463 98.0463Z" fill="#BA1B2D"/>
</svg>
