<svg xmlns="http://www.w3.org/2000/svg" viewBox="0 0 1246.9 1397.19"><defs><style>.cls-1{fill:#1e1e1e;}.cls-2{fill:#fae6a7;}</style></defs><g id="Layer_2" data-name="Layer 2"><g id="Layer_1-2" data-name="Layer 1"><path class="cls-1" d="M944.13,1295.37a7.32,7.32,0,0,1-.81,0L158,1210.16a7.5,7.5,0,0,1-6.65-8.27L273.47,76.22a7.51,7.51,0,0,1,7.45-6.69,7.67,7.67,0,0,1,.82,0L1067,154.74a7.5,7.5,0,0,1,6.64,8.27L951.59,1288.68a7.49,7.49,0,0,1-7.46,6.69Z"/><path class="cls-2" d="M280.93,77l785.29,85.17L944.13,1287.87,158.85,1202.7,280.93,77m0-15A15,15,0,0,0,266,75.41L143.93,1201.09a15,15,0,0,0,13.3,16.53l785.29,85.16a15,15,0,0,0,16.53-13.29L1081.13,163.82a15,15,0,0,0-13.29-16.53L282.55,62.12a15.16,15.16,0,0,0-1.64-.09Z"/><path class="cls-1" d="M849.38,1357.67a7.69,7.69,0,0,1-2-.28L86.64,1144.7a7.5,7.5,0,0,1-5.21-9.24L386.31,45a7.51,7.51,0,0,1,7.22-5.48,7.69,7.69,0,0,1,2,.28l760.72,212.69a7.49,7.49,0,0,1,5.2,9.24L856.6,1352.18a7.51,7.51,0,0,1-7.22,5.49Z"/><path class="cls-2" d="M393.53,47l760.72,212.69L849.38,1350.17,88.65,1137.48,393.53,47m0-15a15,15,0,0,0-14.45,11L74.21,1133.44a15,15,0,0,0,10.41,18.49l760.72,212.68a15,15,0,0,0,18.48-10.41L1168.7,263.75a15,15,0,0,0-10.41-18.49L397.57,32.58a15.09,15.09,0,0,0-4-.56Z"/><path class="cls-1" d="M719.31,1389.69a7.51,7.51,0,0,1-3.39-.81L516.05,1287.41,91.38,1071.79l-79.77-40.5a7.5,7.5,0,0,1-3.3-10.09L520.9,11.6A7.52,7.52,0,0,1,531,8.31L1235.3,365.9a7.51,7.51,0,0,1,3.29,10.09L726,1385.59A7.5,7.5,0,0,1,719.31,1389.69Z"/><path class="cls-2" d="M527.59,15,1231.9,372.59,719.32,1382.19,519.45,1280.72,94.78,1065.1,15,1024.6,527.59,15m0-15a15,15,0,0,0-13.38,8.21L1.63,1017.81A15,15,0,0,0,8.21,1038L88,1078.48l424.67,215.61,199.87,101.47a15,15,0,0,0,20.16-6.58l512.58-1009.6a15,15,0,0,0-6.58-20.16L534.38,1.63A15,15,0,0,0,527.59,0Z"/><path class="cls-2" d="M1016.29,584.23c-12.1,13.38-20.86,29.23-32,43.35-6.73,8.53-13.79,15.57-25.23,17.1-4.23.56-8.45,2.53-12.26,4.61-7.38,4-11.67,8.47-7.37,18.62,6.26,14.81,1.74,27.07-12.28,37.26s-24.74,22-26.14,40.25c-.52,6.85-4.82,6.84-9.11,3.23-7-5.9-8.68-13.6-5.31-22,1.49-3.74,4-7.07,5.59-9.76,4.44-10.25,11.61-16.94,19.55-22.9A30.39,30.39,0,0,0,921,683.32c1.34-2.68,3.94-6,1.28-8.35-3.33-2.93-6.2.84-8.68,2.83-3.16,2.53-5.88,5.62-8.91,8.34q-46.94,42.15-93.92,84.24c-10.5,9.42-10.63,9.53-2,21.34,21.11,29.06,40,59.27,55.6,91.87,15.44,32.31,13.44,63.54,1,95.44-11,28.24-24.79,55-43.65,78.94-1.25,1.59-2.48,3.39-4.13,4.44-7.31,4.64-6.31,10-2.43,16.44,7,11.55,10.62,24.11,9.73,37.8-.2,3.1-.14,6.45-3.26,8-3.79,2-5.19-1.69-7.26-3.74-8.4-8.33-13.4-6.89-16.6,5-1,3.66-2.39,4.89-5.47,2.46-2.3-1.82-5.88-1.06-7.46-2.65-10.15-10.26-13.72-1.79-17.88,5.82-9.19,16.81-20.44,32-35.3,44.31-4.27,3.53-4.91,7.08-3.08,12.46,5.46,16.1-1.51,25.91-18.07,28.23-17.7,2.47-34.84,7.71-53.09,7.87-24.85.21-49.44-1.06-73.73-6.08-9.22-1.9-15.57-.41-21.74,7.78q-21.09,28-41.5,56.51L95.78,1067.1c1.45-5,3.1-10.07,4.86-15,.57-1.59,1.81-3.25,1.65-4.76-3.23-29.91,14.33-53.69,24.28-79.45,20.73-53.71,46.4-105.25,72.1-156.76,21.1-42.29,45.14-83,70.56-122.56,23.71-37,50.13-72.5,85.47-100.06,9.76-7.6,20.76-9.83,32.19-10.72,32.84-2.56,65.66-2.27,98.22,3.14,7.15,1.18,11.07-.07,13.77-7.61,10.14-28.37,24.92-54.2,45.78-76.1,10-10.49,12.13-25.89,23.4-35.37,1.81-1.52,3-4,5-5.05,21-11.51,30-32.75,42-51.6,1.08-1.7,2.33-3.6,2.51-5.5,1.15-12,9-19.34,17.74-26.09,5.14-4,9.2-7.92,10.52-15.18,1.67-9.13,9.69-13.12,18.24-13.63,18-1.07,35.83-3.74,54.09-3.69,11.33,0,14,5.09,18.9,11.65,6.38,8.46,12.44,16.66,12.45,28,0,4.28,3.6,5.3,7.4,4.92,31.68-3.11,56.14,12.6,78.92,31.31C848.14,427.08,856.54,441,863,455.64c2.46,5.54,7,9.58,8.5,15.93,3.92,16.84-1.48,30.4-10.69,44.28-5.63,8.49-7.08,19.67-11.07,29.36-4.1,10-7.91,20.27-18.94,25.37-3.74,1.74-5.46,6-6.84,9.86-4.66,12.9-12.37,24.15-19.42,35.72-4,6.62-8.88,12.72-16.6,15.92-4.82,2-7.28,6.85-10.57,10.73-12.62,14.91-24,31.51-44.92,36.16-5.31,1.17-6.27,4.71-3.5,9.22,14.16,23.08,24.43,48.7,47,66.11,11.17,8.62,11.09,9.62,21.93,1a291.53,291.53,0,0,0,26.29-24c21.21-21.56,47.15-37.75,67.75-60,3.5-3.79,6.4-5.95-1.29-7.32-6.9-1.24-8.83-6.82-9.8-12.7-.6-3.66-1.08-8.09,2.79-10.09s4.83,2.45,6.73,4.53c4.06,4.44,8.83,3.19,13,.88,6.36-3.48,12.54-5.92,20.15-5.58,6.78.3,11.67-4.64,12.88-11.06,4.09-21.8,18.29-33.22,38-40.65C986,584.89,996.75,578,1008,572.57c3.91-1.89,8.74-4.07,12.07.42C1023.66,577.82,1019.17,581.06,1016.29,584.23Z"/></g></g></svg>