<svg xmlns="http://www.w3.org/2000/svg/" viewBox="0 0 424.7 464.47"><defs><style>.cls-1{opacity:0.04;}</style></defs><g id="Layer_2" data-name="Layer 2"><g id="Layer_1-2" data-name="Layer 1"><path class="cls-1" d="M424.2,381c-1.39,2.18-3.24.7-4.95.26-7-1.79-9.14.5-7.15,7.74.6,2.22.24,3.29-2.12,3-1.76-.24-3.41,1.25-4.72.9-8.47-2.27-7.74,3.27-7.59,8.54.33,11.63-.9,23.05-4.92,34.05-1.16,3.16-.41,5.22,2.2,7.47,7.8,6.77,7.15,14.05-.82,20.34l-1.47,1.18H5.79C4,445.56,2.71,426.58,1.45,407.61a799.16,799.16,0,0,1-.58-85.89C2,295.08,4.92,268.35,15,243.06c2.78-7,7.87-11.52,13.59-15.49C45,216.16,62.31,206.25,81,199.1c4.11-1.57,5.79-3.43,4.89-8.21-3.38-18-3.55-36.06.67-53.93,2-8.56-1.58-17.29,1.42-25.72.48-1.35.35-3,1.06-4.17,7.5-12.48,5.7-26.38,6.18-39.92a8.34,8.34,0,0,0-.37-3.65c-3.08-6.65-1.19-12.91,1.3-19.12,1.47-3.66,2.39-7,.86-11.18-1.92-5.3,1.06-9.85,5.39-12.74,9.11-6.09,17.63-12.95,27.22-18.52,6-3.46,8.88-1.61,13.48.31,5.94,2.48,11.63,4.92,15.11,10.85,1.31,2.25,3.51,1.68,5.38.32,15.66-11.34,33.3-10.61,51-7.79,9.6,1.54,18.27,6.26,26.16,11.94,3,2.16,6.62,2.87,9.34,5.75,7.22,7.62,8.55,16.39,8,26.49-.35,6.18,2.32,12.48,3.2,18.79.91,6.48,2.07,13.05-2.15,19.1-1.43,2.06-1,4.84-.56,7.27,1.51,8.2.92,16.45.77,24.68-.09,4.71-.76,9.39-3.82,13.44-1.92,2.52-1.72,5.82-2.25,8.86-2.05,11.69-2.91,23.87-12.47,32.73-2.42,2.25-1.84,4.39,1,5.91,14.5,7.76,27.74,18,44.9,20.25,8.5,1.1,8.77,1.65,11.81-6.2A177.28,177.28,0,0,0,304.92,174c4.51-17.8,13.15-34.24,17.12-52.23.67-3.07,1.53-5.09-2.92-3.45-4,1.47-6.72-.87-9-3.65-1.44-1.74-3-3.91-1.64-6.15s3.28-.19,4.92.31c3.49,1.09,5.61-1,7.11-3.53,2.26-3.77,4.75-7,8.84-9.1,3.65-1.92,4.7-6,3.37-9.75-4.54-12.68-.6-23,7.43-32.95,4.76-5.88,8.28-12.75,12.51-19.08,1.47-2.19,3.34-4.81,6.46-3.48,3.35,1.44,2,4.51,1.46,7.06-2.25,10.73-2,21.72-3.48,32.53-.91,6.53-2.46,12.39-8,16.7a22.38,22.38,0,0,0-5,6.18c-2.63,4.38-3.52,8,1.85,12,7.82,5.84,9.21,13.65,5,23.3s-6.25,19.09-1.37,29.11c1.82,3.75-.43,5.07-3.78,4.49-5.48-1-8.73-4.47-9.55-9.93a43.68,43.68,0,0,1-.06-6.83c-.81-6.73.9-12.44,3.23-18a18.42,18.42,0,0,0,1.6-8.42c-.12-1.81.22-4.36-1.89-4.77-2.64-.51-3,2.34-3.68,4.15-.88,2.3-1.36,4.75-2.11,7.1q-11.69,36.5-23.41,73c-2.62,8.16-2.65,8.26,5.47,11.82a356.67,356.67,0,0,1,57.32,31.11c18,12.21,26.53,29.19,29.79,49.73,2.89,18.18,3.87,36.44,1.32,54.76a11.26,11.26,0,0,1-.81,3.6c-2.4,4.67-.23,7.19,3.77,9.36a38.68,38.68,0,0,1,16.69,16.84C424.29,377.49,425.34,379.23,424.2,381Z"/></g></g></svg>