<svg width="1920" height="529" viewBox="0 0 1920 529" fill="none" xmlns="http://www.w3.org/2000/svg">
<path fill-rule="evenodd" clip-rule="evenodd" d="M1209.16 437.697C1208.71 436.576 1208.22 435.452 1207.68 434.323C1206.96 432.821 1206.08 431.373 1205.2 429.923L1205.2 429.921C1203.15 426.541 1201.09 423.144 1200.99 418.995C1200.89 415.023 1200.11 411.196 1199.33 407.362C1199.09 406.189 1198.85 405.015 1198.63 403.836C1196.1 389.993 1192.05 376.472 1186.55 363.521C1186.39 363.161 1186.24 362.804 1186.08 362.448C1186.02 362.303 1185.96 362.158 1185.89 362.014C1185.79 361.786 1185.69 361.56 1185.59 361.333C1183.59 356.802 1181.67 352.458 1181.75 347.163C1182.13 322.62 1176.3 299.275 1167.31 276.635C1161.08 260.955 1150.22 249.263 1135.88 240.712C1123.96 233.583 1111.04 228.604 1098.09 223.638C1078.84 216.204 1059.04 210.29 1038.87 205.95C1035.77 205.298 1029.43 203.826 1029.43 203.826C1029.43 203.826 1029.59 199.668 1029.88 197.308C1030.18 194.812 1032.18 192.684 1034.14 190.588C1035.18 189.477 1036.21 188.375 1036.98 187.233C1038.34 185.304 1038.91 182.935 1038.6 180.599C1038.06 176.923 1037.98 173.207 1037.9 169.494V169.492C1037.81 165.254 1037.72 161.019 1036.94 156.85C1036.45 154.203 1036.27 151.502 1036.1 148.794C1035.71 142.9 1035.33 136.973 1031.62 131.499C1028.45 126.826 1025.99 121.673 1023.52 116.517L1023.52 116.513C1022.26 113.889 1021.01 111.264 1019.66 108.702C1018.6 106.466 1018.25 103.96 1018.65 101.52C1018.79 100.037 1018.94 98.5565 1019.08 97.0768L1019.08 97.0715C1020.15 86.3752 1021.2 75.7398 1018.21 65.0239C1017.71 63.2337 1017.23 61.4403 1016.75 59.6483C1014.3 50.5851 1011.87 41.5587 1007.43 33.1682C1007.18 32.6862 1006.9 32.2083 1006.63 31.7287C1005.38 29.5239 1004.11 27.2829 1004.21 24.4353C1004.63 12.9 1000.17 6.98241 989.223 3.89329C974.886 -0.13429 960.405 -0.603523 945.611 0.543491C921.654 2.32918 899.365 9.3025 877.937 19.7299C873.818 21.7111 872.163 24.2006 872.163 28.8539C872.065 38.0499 873.323 47.0775 874.58 56.0982L874.58 56.0998C875.508 62.754 876.434 69.4045 876.816 76.116C876.928 79.2422 877.41 82.3441 878.25 85.3573C879.631 89.6195 879.058 93.1388 875.721 96.2148C874.069 97.6209 872.924 99.5304 872.463 101.65C870.936 108.83 871.451 116.294 873.948 123.196C877.799 133.808 883.763 143.527 891.48 151.767C893.985 154.204 895.882 157.195 897.019 160.5C900.902 173.001 902.587 186.082 901.998 199.159C901.907 200.958 901.79 204.973 901.79 204.973C901.79 204.973 898.349 205.794 896.693 206.107C894.22 206.565 891.871 207.411 889.533 208.254C888.015 208.801 886.502 209.346 884.962 209.782C868.266 214.47 852.143 221.001 836.892 229.255C818.865 238.82 803.752 253.072 793.149 270.509C789.004 277.3 784.872 284.912 785.407 292.732C786.085 302.886 783.256 310.719 777.313 318.801C769.57 329.345 765.191 341.819 761.007 354.228C757.566 364.381 754.581 374.652 754.203 385.51C754.112 388.404 753.812 391.141 751.687 393.33C744.047 401.192 742.589 411.436 741.174 421.366C741.12 421.746 741.066 422.125 741.012 422.503L740.964 422.835C740.865 423.526 740.764 424.214 740.66 424.899C739.955 430.025 739.817 435.193 740.235 440.311C707.707 441.818 675.889 443.555 644.86 445.48C645.542 444.87 646.228 444.263 646.914 443.655C651.278 439.791 655.656 435.913 659.08 431.332C677.2 407.016 683.125 379.148 680.742 349.287C680.361 344.46 679.715 339.633 679.069 334.807C678.265 328.802 677.462 322.798 677.168 316.794C676.675 302.003 670.559 287.957 660.066 277.521C639.032 256.292 613.85 243.924 583.382 244.378C577.707 244.454 572.898 243.339 568.566 239.136L568.216 238.797C563.53 234.246 561.18 231.964 560.658 229.322C560.133 226.665 561.455 223.643 564.106 217.582L564.233 217.29C564.375 216.965 564.515 216.64 564.655 216.316C566.91 211.091 569.06 206.108 575.465 204.64C576.256 204.456 576.971 203.362 577.469 202.538C590.195 181.147 591.971 157.622 590.542 133.545C590.347 130.708 588.744 128.13 585.126 129.711C581.682 131.184 578 138.766 578 138.766C578 138.766 576.212 126.852 575.129 123.602C574.398 121.372 574.195 118.939 573.992 116.52C573.644 112.349 573.299 108.219 570.255 105.244C557.323 92.5934 543.806 80.571 524.711 78.2857C522.245 77.99 519.789 77.6105 517.337 77.2314C516.376 77.0829 515.415 76.9344 514.454 76.791C495.229 73.9425 477.25 78.9681 461.404 88.9542C445.883 98.7562 442.959 115.577 442.743 132.809C442.71 134.91 442.439 142.957 442.439 142.957L436.385 135.202C436.28 135.074 436.177 134.944 436.073 134.814L436.069 134.809C434.75 133.157 433.417 131.488 430.969 132.04C428.63 132.57 427.958 134.639 427.958 136.654C427.666 157.33 428.511 177.811 436.872 197.134C438.789 201.542 441.464 204.889 447.053 203.459C450.097 202.69 451.7 204.51 452.783 206.947C453.271 208.036 453.702 209.161 454.133 210.286C454.952 212.426 455.771 214.564 456.985 216.445C461.058 222.738 460.7 227.666 454.202 232.15C452.233 233.506 450.861 235.858 449.554 238.098C449.337 238.471 449.121 238.84 448.905 239.201C446.988 242.472 444.335 244.281 440.49 244.281C425.16 244.107 411.697 250.185 398.233 256.264C396.629 256.988 395.025 257.713 393.418 258.426C386.179 261.607 379.438 265.816 373.403 270.925C372.093 272.048 371.144 273.46 370.192 274.877C368.83 276.905 367.461 278.942 365.02 280.153C362.186 281.515 359.814 283.677 358.195 286.371C356.577 289.066 355.782 292.176 355.911 295.316C356.337 302.076 354.735 308.28 353.136 314.471C352.298 317.714 351.461 320.954 350.918 324.268C349.401 333.513 346.754 342.571 344.108 351.63C338.913 369.41 333.718 387.195 337.054 406.409C337.105 407.149 336.986 407.889 336.707 408.576C335.646 412.042 336.242 415.378 336.989 418.833C337.613 421.683 338.735 424.424 339.857 427.165C342.086 432.611 344.318 438.061 342.654 444.394C342.521 444.975 342.967 445.747 343.383 446.466C343.509 446.685 343.633 446.899 343.737 447.101C348.567 456.546 355.077 459.005 364.196 453.048C372.347 447.723 379.497 450.305 386.693 452.904C388.571 453.582 390.453 454.262 392.357 454.802C394.696 455.463 395.108 458.16 395.108 460.467C395.092 462.429 395.302 464.271 395.721 465.999C350.368 470.66 308.154 475.511 269.501 480.315C272.045 461.028 273.223 441.584 273.945 422.086C274.305 412.53 272.841 403.084 271.383 393.684L271.346 393.44C271.291 393.085 271.236 392.731 271.181 392.376C269.029 378.435 265.377 364.918 258.76 352.329C256.628 348.261 253.528 345.665 249.426 343.553C241.839 339.649 233.783 337.203 225.717 334.755L225.714 334.754C224.265 334.314 222.817 333.874 221.37 333.426C217.463 332.182 207.006 327.69 207.006 327.69C207.006 327.69 212.675 318.1 214.591 315.081C217.709 310.073 220.239 304.723 222.13 299.136C222.22 298.878 222.413 298.384 222.673 297.718C223.87 294.651 226.489 287.939 227.053 283.824C227.738 278.814 229.978 259.742 230.159 256.924C230.354 253.764 229.985 242.419 228.942 239.44C226.723 233.085 227.846 227.611 232.372 222.688C233.36 221.545 234.201 220.282 234.874 218.929C242.809 204.121 238.081 185.264 223.838 175.056C209.306 164.632 192.937 160.342 175.191 160.598C153.792 160.826 133.914 165.446 117.397 180.234C105.346 191.014 96.5504 211.175 111.675 228.458C113.631 230.724 115.535 233.085 115.649 236.387C115.826 237.273 116.301 238.072 116.994 238.653C121.56 243.118 121.775 246.164 117.74 251.188C113.8 256.09 110.007 261.013 107.317 266.85C89.9331 304.738 74.0087 343.19 63.4642 383.687C59.9874 397.177 57.4118 410.762 58.2591 424.783C58.8711 434.621 64.6343 444.016 77.9764 437.621C79.4094 436.934 80.8002 436.138 82.1952 435.34C83.0258 434.865 83.8579 434.39 84.7012 433.935C86.2345 433.115 87.687 432.725 89.4086 433.7C95.3735 437.089 95.9048 436.874 100.928 432.126C106.209 427.14 110.723 421.4 114.324 415.092C114.95 414.023 118.648 407.298 118.648 407.298C118.648 407.298 118.796 414.991 118.857 416.424C118.937 418.535 118.904 420.654 118.857 422.772C118.643 434.851 119.543 446.924 121.547 458.837C123.45 470.559 125.555 482.072 134.095 491.177C134.678 491.875 135.026 492.738 135.09 493.645C135.202 494.993 135.363 496.348 135.524 497.704C135.56 498.007 135.596 498.311 135.632 498.614C50.3269 511.398 0 521.5 0 521.5V528.5H937.5H1920V521.5C1888.16 514.782 1854.26 507.987 1822.32 502.169C1823.29 501.336 1824.24 500.492 1825.19 499.648C1827.25 497.833 1829.3 496.018 1831.46 494.317C1837.2 489.792 1837.66 484.556 1832.04 479.686C1830.17 478.06 1829.63 476.585 1830.46 474.312C1833.36 466.4 1834.25 458.185 1834 449.812C1834 449.588 1833.99 449.363 1833.98 449.139C1833.86 445.576 1833.74 442.14 1839.46 443.676C1839.93 443.8 1840.45 443.603 1841.01 443.392C1841.59 443.174 1842.21 442.941 1842.86 443.029C1844.55 443.237 1844.82 442.467 1844.38 440.871C1842.96 435.663 1844.49 434.015 1849.52 435.303C1849.81 435.374 1850.09 435.481 1850.38 435.589L1850.38 435.589C1851.37 435.963 1852.34 436.332 1853.12 435.109C1853.88 433.92 1853.29 432.761 1852.71 431.633C1852.66 431.54 1852.61 431.447 1852.57 431.354C1849.93 426.162 1845.73 421.928 1840.56 419.247C1837.68 417.686 1836.12 415.874 1837.86 412.514C1838.19 411.688 1838.39 410.814 1838.44 409.925C1840.27 396.747 1839.56 383.604 1837.48 370.527C1835.14 355.759 1829 343.545 1816.05 334.762C1803.02 326.057 1789.22 318.566 1774.82 312.383C1768.98 309.824 1769.01 309.743 1770.88 303.889L1770.89 303.881C1776.51 286.367 1782.12 268.863 1787.73 251.369C1787.95 250.673 1788.14 249.964 1788.33 249.254C1788.61 248.243 1788.88 247.232 1789.25 246.255C1789.33 246.042 1789.41 245.808 1789.48 245.568C1789.87 244.351 1790.31 242.97 1791.9 243.277C1793.17 243.524 1793.21 244.857 1793.23 246.049C1793.24 246.277 1793.24 246.499 1793.26 246.708C1793.35 248.79 1792.96 250.865 1792.1 252.765C1790.42 256.764 1789.19 260.872 1789.78 265.713C1789.67 267.345 1789.7 268.983 1789.86 270.611C1790.45 274.539 1792.78 277.035 1796.72 277.754C1799.14 278.172 1800.75 277.222 1799.44 274.525C1795.93 267.317 1797.39 260.526 1800.42 253.585C1803.45 246.643 1802.45 241.025 1796.83 236.824C1792.96 233.947 1793.61 231.343 1795.5 228.192C1796.42 226.507 1797.64 225.001 1799.09 223.747C1803.08 220.647 1804.19 216.431 1804.85 211.734C1805.28 208.548 1805.51 205.341 1805.74 202.136C1806.07 197.511 1806.4 192.889 1807.35 188.334C1807.4 188.082 1807.47 187.822 1807.53 187.559C1807.94 185.912 1808.38 184.143 1806.3 183.256C1804.06 182.299 1802.72 184.184 1801.66 185.759C1800.54 187.422 1799.5 189.139 1798.45 190.854L1798.45 190.856C1796.64 193.83 1794.83 196.802 1792.66 199.484C1786.88 206.641 1784.04 214.065 1787.31 223.186C1788.27 225.883 1787.51 228.818 1784.89 230.199C1781.95 231.71 1780.16 234.033 1778.53 236.745C1777.45 238.565 1775.92 240.069 1773.41 239.284C1773.11 239.191 1772.79 239.023 1772.47 238.853C1771.55 238.368 1770.61 237.868 1769.88 239.061C1768.89 240.673 1770.02 242.234 1771.05 243.485C1772.69 245.485 1774.65 247.168 1777.53 246.111C1780.45 245.035 1780.19 246.149 1779.75 248.023C1779.73 248.129 1779.71 248.238 1779.68 248.349C1779.66 248.427 1779.64 248.506 1779.63 248.585C1778.11 255.463 1775.65 262.023 1773.19 268.582L1773.19 268.584C1771.01 274.373 1768.84 280.161 1767.32 286.163C1766.1 291.202 1764.57 296.16 1762.74 301.01C1760.68 306.32 1760.39 306.281 1755.28 305.606C1754.95 305.563 1754.61 305.517 1754.24 305.47C1744.86 304.239 1737.1 299.679 1729.34 295.112C1726.89 293.676 1724.45 292.238 1721.95 290.904C1719.92 289.81 1719.49 288.264 1721.23 286.653C1727.28 281.053 1728.49 273.61 1729.69 266.182L1729.69 266.165C1729.86 265.144 1730.02 264.124 1730.2 263.109C1730.3 262.54 1730.37 261.959 1730.43 261.377C1730.62 259.725 1730.8 258.075 1731.82 256.728C1734.03 253.822 1734.5 250.456 1734.57 247.068C1734.59 246.043 1734.61 245.017 1734.64 243.992V243.991C1734.78 239.091 1734.91 234.186 1734.01 229.314C1733.7 227.567 1733.39 225.567 1734.42 224.085C1737.32 219.927 1736.68 215.428 1736.06 210.969L1735.97 210.346C1735.73 208.645 1735.32 206.946 1734.9 205.252L1734.9 205.25C1734.2 202.422 1733.51 199.609 1733.67 196.829C1734.06 189.564 1733.11 183.256 1727.91 177.774C1726.74 176.536 1725.34 175.855 1723.94 175.176C1723 174.719 1722.06 174.263 1721.19 173.638C1715.51 169.552 1709.28 166.15 1702.37 165.049C1689.64 163.021 1676.94 162.488 1665.68 170.653C1664.33 171.631 1662.76 172.041 1661.81 170.423C1659.3 166.157 1655.21 164.402 1650.94 162.618C1650.64 162.491 1650.34 162.365 1650.06 162.243C1647.23 161.025 1645.16 160.134 1641.24 162.395C1636.88 164.93 1632.82 167.837 1628.77 170.739C1626.42 172.424 1624.07 174.108 1621.66 175.717C1618.51 177.796 1616.4 181.069 1617.79 184.874C1618.89 187.888 1618.23 190.291 1617.17 192.923C1615.37 197.39 1614.01 201.894 1616.24 206.677C1616.52 207.522 1616.61 208.419 1616.5 209.303C1616.43 211.22 1616.42 213.148 1616.42 215.076C1616.4 222.94 1616.38 230.809 1612.05 238.018C1611.76 238.507 1611.67 239.112 1611.57 239.723C1611.5 240.165 1611.43 240.611 1611.29 241.018C1610.12 244.298 1610.34 247.641 1610.56 250.993C1610.74 253.838 1610.93 256.689 1610.27 259.512C1607.23 272.374 1607.35 285.365 1609.79 298.313C1610.43 301.751 1609.23 303.089 1606.27 304.219C1592.8 309.362 1580.34 316.491 1568.54 324.698C1564.42 327.554 1560.77 330.805 1558.76 335.841C1551.52 354.025 1549.41 373.253 1548.63 392.431C1547.66 413.018 1547.81 433.642 1549.06 454.214C1549.24 456.99 1549.43 459.765 1549.62 462.54C1536.03 461.035 1522.45 459.597 1508.9 458.225C1508.72 457.842 1508.54 457.459 1508.35 457.077C1506.07 452.409 1504.93 447.27 1505.02 442.077C1504.77 421.548 1505.3 401.035 1505.83 380.519C1506.01 373.482 1506.2 366.445 1506.35 359.407C1506.56 349.397 1504.63 339.067 1497.76 331.487C1479.34 311.187 1457.17 295.817 1432.08 284.767C1428.56 283.328 1424.96 282.086 1421.3 281.047C1421.3 281.047 1424.62 275.167 1425.48 271.797C1429.6 255.577 1433.63 239.347 1433.48 222.427C1433.44 218.517 1435.61 215.687 1438.18 212.997C1447.89 202.846 1455.14 190.607 1459.39 177.217C1459.64 176.443 1459.99 175.621 1460.34 174.778C1461.68 171.613 1463.14 168.169 1459.98 165.997C1457.18 164.061 1454.89 166.428 1452.71 168.679C1452 169.416 1451.3 170.14 1450.6 170.697C1450.49 170.784 1450.38 170.871 1450.27 170.958C1448.17 172.654 1446.16 174.277 1443.54 171.937C1441.11 169.787 1441.29 167.037 1442.82 164.517C1445.05 160.854 1446.8 156.923 1448.05 152.817C1451.3 142.032 1449.76 131.38 1448.22 120.748C1447.61 116.553 1447.01 112.362 1446.7 108.167C1446.12 100.347 1439.85 95.4573 1433.78 90.8473C1424.61 83.8573 1415.28 77.5773 1403.78 74.5773C1392.74 71.7072 1381.57 71.9197 1370.4 72.1323C1361.64 72.2989 1352.88 72.4656 1344.18 71.1473C1340.47 70.5816 1336.53 71.7465 1332.56 72.9203C1330.5 73.531 1328.42 74.1442 1326.37 74.5173C1312.8 76.9973 1302.55 83.5173 1298.08 97.2273C1297.23 99.8573 1295.93 102.257 1293.23 103.457C1286.3 106.557 1284.27 112.857 1283.44 119.457C1282.33 128.337 1282.76 137.337 1286.86 145.337C1290.17 151.917 1290.03 158.659 1289.89 165.5C1289.88 166.062 1289.87 166.624 1289.86 167.187C1289.82 169.787 1289.34 174.097 1289.34 174.097C1289.34 174.097 1285.34 171.657 1283.83 170.757C1283.54 170.585 1283.25 170.384 1282.96 170.182C1281.74 169.327 1280.48 168.45 1279.01 169.647C1277.44 170.917 1277.68 173.017 1278.15 174.737C1283.12 192.887 1288.43 210.897 1302.34 224.687C1304.94 227.267 1307.24 229.937 1308.24 233.587C1312 246.614 1316.6 259.382 1322.03 271.807C1322.98 273.987 1325.55 278.807 1325.55 278.807C1325.55 278.807 1320.75 279.757 1318.25 280.527C1297.63 286.957 1280.46 299.477 1263.63 312.377C1256.31 318.037 1250.03 324.887 1246.84 334.037C1240.32 352.757 1238.21 372.387 1236.21 391.827C1234.62 407.346 1234.37 423.055 1234.55 438.713C1226.06 438.352 1217.6 438.014 1209.16 437.697ZM145.231 319.142C146.745 320.798 148.123 322.573 149.354 324.448C150.535 326.329 151.85 328.122 153.288 329.815C153.288 329.815 143.49 332.767 139.166 334.267C127.134 338.434 116.47 345.81 108.326 355.598C106.873 357.305 105.279 358.894 103.688 360.479C103.142 361.023 102.597 361.566 102.058 362.114C101.412 362.766 99.8321 364.925 99.8321 364.925C99.8321 364.925 99.1798 361.294 99.2201 360.621C99.594 354.502 100.883 348.535 102.171 342.571L102.172 342.57C102.598 340.597 103.024 338.624 103.416 336.647C103.809 334.697 104.835 332.931 106.335 331.624C110.659 327.79 113.262 322.814 115.077 317.542C117.364 310.925 122.091 306.358 127.021 301.927C128.399 300.689 130.706 298.524 130.706 298.524C132.165 300.035 133.513 301.648 134.741 303.352C135.781 304.968 136.751 306.63 137.72 308.292C139.938 312.095 142.157 315.899 145.231 319.142Z" fill="#FAE6A7"/>
</svg>
