<svg width="1657" height="366" viewBox="0 0 1657 366" fill="none" xmlns="http://www.w3.org/2000/svg">
<path d="M70.8056 278.437L70.9848 278.462L71.1614 278.423C85.618 275.188 97.9132 263.907 106.569 249.937C115.232 235.955 120.351 219.125 120.351 204.537C120.351 173.254 111.589 151.092 102.889 129.788C102.683 129.284 102.477 128.781 102.272 128.278C93.7872 107.518 85.5752 87.4251 85.5752 60.1088C85.5752 22.0735 110.81 1 133.262 1C149.276 1 160.846 5.84491 168.902 13.2696C176.967 20.7033 181.592 30.8011 183.558 41.4443C185.282 52.8112 183.29 64.6804 178.702 76.7112C172.738 90.8319 162.433 99.4597 153.107 99.4597C149.106 99.4597 145.332 98.0919 141.972 95.0201C153.423 81.8005 159.58 63.6556 159.857 47.232L159.857 47.2236V47.2151C159.857 30.5241 154.137 15.6179 141.735 8.50144L141.486 8.35875L141.199 8.3695C133.368 8.66325 126.196 13.4805 121.019 21.3659C115.84 29.2561 112.602 40.2851 112.602 53.2446C112.602 78.3692 120.619 98.7719 128.907 119.865C129.291 120.841 129.675 121.818 130.059 122.797C138.747 144.964 147.378 168.236 147.378 199.064C147.378 221.923 140.387 244.187 127.126 260.715C113.883 277.223 94.3651 288.042 69.1811 288.042C44.5238 288.042 27.5254 279.74 16.6751 267.079C5.8024 254.393 1 237.21 1 219.286C1 199.72 7.13399 179.498 18.1417 164.202C29.1409 148.918 44.9536 138.611 64.3564 138.657H64.3588C77.4102 138.657 86.8751 144.531 93.112 153.398C99.3746 162.302 102.401 174.26 102.401 186.356C102.401 199.012 99.3034 211.405 93.4125 220.602C87.536 229.776 78.9205 235.725 67.79 235.725C61.9769 235.725 57.4515 233.318 55.1703 230.256C61.362 223.885 66.8401 214.694 70.8064 204.673C74.8993 194.333 77.4145 183.03 77.4145 172.906C77.4145 161.909 73.9396 152.341 66.0379 148.093L65.6977 147.91L65.3228 148.003C55.179 150.528 46.3091 160.788 40.0021 174.291C33.6672 187.855 29.7884 204.952 29.7884 221.605C29.7884 235.136 32.6648 248.303 39.2419 258.621C45.8394 268.97 56.1319 276.401 70.8056 278.437Z" stroke="#FAE6A7" stroke-width="2"/>
<path d="M234.878 102.026L234.607 101.855L234.288 101.873C232.085 101.997 229.767 103.361 227.457 105.446C225.119 107.557 222.653 110.533 220.148 114.14C215.135 121.359 209.877 131.237 205.097 142.149C195.551 163.942 187.811 190.09 187.811 207.691C187.811 216.381 190.172 223.042 195.041 227.018L195.396 227.308L195.848 227.228C214.739 223.865 232.441 208.154 247.603 188.072C262.669 168.118 275.371 143.656 284.374 122.08C284.531 122.072 284.655 122.076 284.751 122.087C284.846 122.098 284.898 122.113 284.922 122.123C284.928 122.135 284.935 122.156 284.943 122.187C284.975 122.305 284.998 122.497 284.998 122.812C284.986 124.411 284.289 127.445 282.91 131.644C281.546 135.802 279.553 140.989 277.04 146.829C272.014 158.509 264.922 172.763 256.647 186.573C248.367 200.389 238.926 213.721 229.209 223.586C219.452 233.492 209.599 239.714 200.495 239.714C178.306 239.714 161.619 226.618 161.619 207.691C161.619 191.467 166.061 169.163 173.854 148.35C181.657 127.514 192.749 108.366 205.923 98.2877C208.031 96.6965 211.279 95.4614 214.853 94.6275C218.408 93.7981 222.181 93.3898 225.256 93.3898C233.453 93.3898 241.248 95.9041 246.979 100.955C252.691 105.989 256.435 113.614 256.435 124.021C256.435 132.992 253.346 147.363 247.572 159.478C244.687 165.529 241.16 170.959 237.066 174.862C232.978 178.76 228.379 181.089 223.308 181.089C219.288 181.089 214.819 178.63 213.052 174.575C217.664 168.961 223.698 157.385 228.618 145.149C233.677 132.569 237.662 119.034 237.662 110.293C237.662 108.403 237.522 106.717 237.125 105.332C236.725 103.939 236.037 102.758 234.878 102.026ZM284.913 122.105C284.913 122.105 284.914 122.106 284.916 122.109C284.914 122.107 284.913 122.105 284.913 122.105Z" stroke="#FAE6A7" stroke-width="2"/>
<path d="M357.15 122.378L356.161 122.263L356.041 123.252C353.787 141.891 344.513 171.036 331.221 195.514C324.577 207.749 316.957 218.765 308.752 226.709C300.536 234.663 291.842 239.435 283.031 239.435C274.131 239.435 266.964 236.462 262.005 230.737C257.03 224.992 254.17 216.35 254.17 204.815C254.17 191.915 258.317 175.468 264.709 158.959C271.094 142.467 279.683 126.003 288.491 113.086C294.711 104.12 300.382 100.996 305.566 100.996C307.798 100.996 309.904 101.263 312.089 102.05L313.625 102.603L313.42 100.983C313.05 98.0655 314.228 95.3231 316.605 93.2747C318.991 91.2179 322.596 89.8647 326.988 89.8647C333.273 89.8647 340.393 92.4843 346.128 96.7951C351.866 101.108 356.079 107.006 356.782 113.462L356.864 114.218L357.614 114.34C362.79 115.188 368.6 115.467 374.283 115.467C385.189 115.467 396.031 114.404 403.787 112.696C404.247 113.298 404.535 114.049 404.535 115.023C404.535 115.887 404.043 116.873 402.793 117.915C401.549 118.953 399.661 119.95 397.163 120.815C392.175 122.542 384.967 123.67 376.23 123.67H376.222L376.213 123.67C370.811 123.762 364.281 123.212 357.15 122.378ZM331.874 117.471L331.973 116.71L331.263 116.418C324.968 113.825 319.771 111.109 316.501 107.573L315.571 106.567L314.896 107.759C305.909 123.642 296.566 145.431 289.47 165.841C282.389 186.208 277.487 205.369 277.487 215.947C277.487 218.85 277.842 221.738 278.623 224.213C279.397 226.671 280.626 228.831 282.454 230.121L282.79 230.358L283.195 230.291C285.063 229.979 287.061 228.522 289.085 226.424C291.147 224.287 293.379 221.329 295.703 217.741C300.353 210.56 305.437 200.741 310.307 189.621C320.044 167.388 328.983 139.812 331.874 117.471Z" stroke="#FAE6A7" stroke-width="2"/>
<path d="M415.573 185.089L413.73 184.329C405.885 199.884 398.798 213.78 391.98 223.79C388.572 228.794 385.265 232.776 382.005 235.498C378.746 238.22 375.61 239.621 372.52 239.621C367.854 239.621 362.382 237.336 358.066 233.411C353.763 229.498 350.707 224.047 350.707 217.802C350.707 201.759 356.958 178.246 365.474 156.951L365.476 156.946C372.008 140.31 379.232 124.371 387.212 112.605C395.236 100.774 403.807 93.4825 412.953 93.4825C422.322 93.4825 433.888 101.864 435.327 117.342L437.248 117.629C439.056 113.215 440.759 108.754 442.369 104.539C443.468 101.661 444.524 98.8982 445.538 96.3433C451.122 96.2316 455.87 96.4272 459.251 97.7821C460.975 98.473 462.293 99.4477 463.191 100.802C464.091 102.16 464.627 103.989 464.627 106.489C464.627 108.139 464.141 110.885 463.221 114.545C462.309 118.176 460.992 122.623 459.378 127.634C456.151 137.652 451.753 149.878 447.073 162.254C443.149 172.471 438.904 182.671 434.978 192.105C433.759 195.032 432.572 197.885 431.434 200.643C426.644 212.25 422.714 222.208 421.162 228.701L420.712 230.579L422.506 229.862C427.391 227.907 433.033 222.764 438.975 215.665C444.948 208.528 451.332 199.28 457.681 188.931C470.274 168.408 482.78 143.473 491.733 121.894C491.889 121.887 492.012 121.891 492.109 121.902C492.203 121.912 492.255 121.928 492.28 121.937C492.285 121.95 492.293 121.97 492.301 122.001C492.333 122.119 492.355 122.313 492.355 122.63C492.355 124.243 491.684 127.288 490.367 131.498C489.063 135.665 487.165 140.857 484.795 146.702C480.056 158.391 473.447 172.649 465.976 186.46C458.502 200.278 450.186 213.613 442.037 223.479C437.962 228.413 433.955 232.448 430.141 235.242C426.315 238.045 422.78 239.528 419.63 239.528H419.62L419.609 239.529C415.615 239.614 411.626 237.479 408.599 234.307C405.569 231.131 403.66 227.075 403.66 223.553C403.66 221.898 404.045 219.713 404.74 217.057C405.431 214.414 406.413 211.366 407.57 208.005C408.425 205.52 409.378 202.857 410.377 200.069C412.065 195.353 413.883 190.278 415.573 185.089ZM492.271 121.92C492.271 121.92 492.272 121.921 492.273 121.923C492.271 121.921 492.271 121.92 492.271 121.92ZM415.242 167.595L415.247 167.585L415.252 167.574C416.261 165.392 417.31 163.171 418.365 160.939C420.879 155.618 423.425 150.23 425.539 145.124C428.529 137.902 430.735 131.067 430.738 125.613C430.879 120.642 429.783 116.587 427.948 113.739C426.113 110.893 423.489 109.2 420.65 109.2C418.858 109.2 417.109 110.116 415.245 112.033C413.384 113.946 411.305 116.959 408.834 121.401C403.885 130.296 397.235 145.166 387.545 169.096C382.38 181.664 378.377 194.304 375.838 204.777C374.568 210.014 373.662 214.721 373.16 218.615C372.662 222.481 372.551 225.635 372.927 227.72L373.159 229.004L374.339 228.446C377.078 227.151 380.079 224.504 383.237 220.905C386.411 217.288 389.81 212.63 393.332 207.216C400.375 196.386 407.953 182.456 415.242 167.595Z" stroke="#FAE6A7" stroke-width="2"/>
<path d="M495.691 164.241L495.164 164.384L494.999 164.905C488.417 185.676 484.102 203.158 484.102 215.297C484.102 220.793 485.236 225.292 487.44 228.399L487.933 229.094L488.698 228.717C494.505 225.848 500.787 220.319 507.188 213.065C513.604 205.795 520.198 196.726 526.621 186.698C539.353 166.816 551.452 143.095 560.173 121.987C560.329 121.98 560.452 121.983 560.548 121.994C560.643 122.005 560.695 122.02 560.719 122.03C560.725 122.043 560.732 122.063 560.74 122.094C560.772 122.212 560.795 122.406 560.795 122.722C560.795 124.335 560.124 127.38 558.796 131.589C557.482 135.754 555.563 140.945 553.152 146.789C548.328 158.476 541.55 172.729 533.741 186.536C525.928 200.35 517.105 213.678 508.198 223.538C503.744 228.468 499.294 232.504 494.964 235.301C490.629 238.101 486.477 239.621 482.598 239.621L482.59 239.621C471.801 239.709 460.6 229.831 460.6 217.616C460.6 204.666 464.655 184.664 471.429 161.875C478.194 139.114 487.643 113.661 498.371 89.8436C509.102 66.0191 521.096 43.8695 532.941 27.693C538.864 19.603 544.725 13.0419 550.345 8.51252C555.979 3.97176 561.266 1.55676 566.061 1.55676C569.134 1.55676 572.222 3.22903 574.573 5.8C576.922 8.36934 578.415 11.7093 578.415 14.8419C578.415 24.0753 575.59 37.412 570.717 52.4421C565.851 67.4496 558.969 84.0657 550.912 99.8308C542.853 115.6 533.635 130.488 524.105 142.055C514.547 153.656 504.792 161.775 495.691 164.241ZM560.737 122.038C560.738 122.038 560.737 122.038 560.735 122.037C560.736 122.038 560.737 122.038 560.737 122.038ZM498.525 154.044L497.673 156.659L500.006 155.202C503.189 153.214 506.703 149.533 510.393 144.708C514.098 139.863 518.038 133.786 522.059 126.922C530.102 113.195 538.505 96.2575 546.037 79.5948C553.569 62.9303 560.239 46.5192 564.813 33.8362C567.1 27.4973 568.869 22.0734 569.96 18.0076C570.504 15.9776 570.887 14.2621 571.077 12.9292C571.172 12.2638 571.223 11.6692 571.216 11.1653C571.21 10.689 571.153 10.1772 570.943 9.75676L570.538 8.9479L569.693 9.26908C567.978 9.92067 566.079 11.4555 564.062 13.5978C562.023 15.7634 559.777 18.6431 557.38 22.1132C552.584 29.0557 547.129 38.4388 541.444 49.3866C530.074 71.2844 517.747 99.5227 507.903 127.203C504.468 136.398 501.311 145.5 498.525 154.044Z" stroke="#FAE6A7" stroke-width="2"/>
<path d="M592.329 185.089L590.485 184.329C582.64 199.884 575.553 213.78 568.735 223.79C565.327 228.794 562.02 232.776 558.76 235.498C555.502 238.22 552.366 239.621 549.276 239.621C544.61 239.621 539.137 237.336 534.821 233.411C530.518 229.498 527.463 224.047 527.463 217.802C527.463 201.759 533.713 178.246 542.229 156.951L542.231 156.946C548.763 140.31 555.987 124.371 563.967 112.605C571.991 100.774 580.562 93.4825 589.709 93.4825C599.078 93.4825 610.643 101.864 612.082 117.342L614.003 117.629C615.811 113.215 617.515 108.754 619.125 104.539C620.224 101.661 621.279 98.8982 622.294 96.3433C627.877 96.2316 632.625 96.4272 636.006 97.7821C637.73 98.473 639.049 99.4477 639.947 100.802C640.846 102.16 641.383 103.989 641.383 106.489C641.383 108.139 640.897 110.885 639.977 114.545C639.064 118.176 637.747 122.623 636.133 127.634C632.907 137.652 628.508 149.878 623.828 162.254C619.905 172.471 615.659 182.671 611.733 192.105C610.515 195.032 609.327 197.885 608.189 200.643C603.399 212.25 599.469 222.208 597.917 228.701L597.468 230.579L599.261 229.862C604.147 227.907 609.789 222.764 615.73 215.665C621.704 208.528 628.087 199.28 634.437 188.931C647.029 168.408 659.535 143.473 668.488 121.894C668.645 121.887 668.768 121.891 668.864 121.902C668.959 121.912 669.011 121.928 669.035 121.937C669.041 121.95 669.048 121.97 669.056 122.001C669.088 122.119 669.111 122.313 669.111 122.63C669.111 124.243 668.439 127.288 667.122 131.498C665.818 135.665 663.921 140.857 661.551 146.702C656.812 158.391 650.202 172.649 642.732 186.46C635.258 200.278 626.941 213.613 618.793 223.479C614.718 228.413 610.71 232.448 606.897 235.242C603.071 238.045 599.536 239.528 596.386 239.528H596.375L596.364 239.529C592.371 239.614 588.381 237.479 585.355 234.307C582.324 231.131 580.415 227.075 580.415 223.553C580.415 221.898 580.8 219.713 581.495 217.057C582.187 214.414 583.168 211.366 584.325 208.005C585.18 205.52 586.134 202.857 587.132 200.069C588.821 195.354 590.638 190.278 592.329 185.089ZM669.026 121.92C669.027 121.92 669.027 121.921 669.029 121.923C669.027 121.921 669.026 121.919 669.026 121.92ZM591.999 167.593L592.003 167.584L592.007 167.574C593.017 165.392 594.066 163.172 595.12 160.939C597.634 155.619 600.18 150.23 602.294 145.124C605.284 137.902 607.49 131.067 607.494 125.613C607.635 120.642 606.538 116.587 604.703 113.739C602.868 110.893 600.244 109.2 597.406 109.2C595.614 109.2 593.864 110.116 592 112.033C590.14 113.946 588.06 116.959 585.589 121.401C580.641 130.296 573.99 145.166 564.301 169.096C559.135 181.664 555.132 194.304 552.593 204.777C551.323 210.014 550.417 214.721 549.915 218.615C549.418 222.481 549.306 225.635 549.683 227.72L549.914 228.999L551.091 228.447C553.854 227.153 556.873 224.506 560.043 220.907C563.229 217.289 566.635 212.631 570.157 207.216C577.201 196.385 584.756 182.454 591.999 167.593Z" stroke="#FAE6A7" stroke-width="2"/>
<path d="M760.586 160.278L760.59 160.27C762.826 155.746 765.085 151.26 767.279 146.902C771.078 139.359 774.683 132.2 777.639 125.895C779.974 120.917 781.92 116.438 783.249 112.692C784.564 108.988 785.329 105.857 785.174 103.637L785.119 102.846L784.336 102.719C783.33 102.556 782.263 102.969 781.254 103.588C780.211 104.226 779.055 105.194 777.81 106.421C775.315 108.88 772.34 112.505 769.041 116.998C762.437 125.995 754.45 138.595 746.298 152.634C730.133 180.473 713.25 214.088 705.164 236.665C703.596 236.903 701.564 237.116 699.323 237.116C695.53 237.116 691.637 236.633 688.729 235.336C685.865 234.06 684.094 232.078 684.094 229.026C684.094 226.582 684.745 222.798 685.92 218.031C687.088 213.287 688.755 207.645 690.745 201.518C694.724 189.267 699.977 175.122 705.071 162.43C707.918 155.531 710.852 148.775 713.647 142.378C713.999 141.57 714.35 140.768 714.698 139.972C717.105 134.466 719.384 129.253 721.377 124.488C723.658 119.037 725.575 114.15 726.889 110.063C728.19 106.014 728.943 102.62 728.791 100.211L728.74 99.4149L727.953 99.2871C726.917 99.1192 725.826 99.5971 724.812 100.274C723.756 100.979 722.579 102.04 721.307 103.382C718.757 106.07 715.702 110.018 712.313 114.883C705.527 124.624 697.316 138.163 689.003 152.983C672.566 182.286 655.661 216.716 648.534 236.845C647.451 236.864 646.392 236.922 645.375 236.979L645.283 236.984C644.07 237.052 642.924 237.116 641.826 237.116C638.143 237.116 635.128 236.691 633.045 235.36C631.064 234.095 629.751 231.889 629.751 227.82C629.751 226.165 630.221 223.398 631.115 219.713C632.002 216.055 633.285 211.573 634.863 206.529C638.02 196.442 642.349 184.147 647.028 171.775L647.028 171.774C650.868 161.58 655.223 151.419 659.368 141.746C660.418 139.297 661.454 136.879 662.465 134.5C667.457 122.751 671.846 111.924 674.14 103.028L674.587 101.292L672.875 101.824C667.558 103.474 663.396 104.098 660.652 104.098C657.611 104.098 655.888 103.467 654.937 102.681C654.022 101.925 653.676 100.902 653.676 99.7177C653.676 98.9476 653.833 98.112 654.151 97.3031C658.254 97.3897 662.276 97.0527 666.124 96.6898C666.563 96.6484 666.999 96.6068 667.432 96.5654C671.032 96.2214 674.457 95.8941 677.715 95.8941C682.384 95.8941 686.104 97.0621 688.645 99.3076C691.166 101.535 692.666 104.946 692.666 109.736C692.666 111.588 692.164 114.309 691.178 117.854C690.198 121.378 688.759 125.645 686.932 130.56C683.279 140.389 678.095 152.752 671.976 166.849L673.765 167.737C677.438 161.205 680.944 154.816 684.307 148.685C691.668 135.269 698.351 123.089 704.638 113.339C709.214 106.242 713.539 100.5 717.712 96.5415C721.897 92.5721 725.804 90.514 729.555 90.514C733.816 90.514 738.95 91.6184 742.985 94.1949C746.98 96.7457 749.884 100.719 749.884 106.582C749.884 109.079 749.17 112.712 747.902 117.204C746.64 121.672 744.853 126.909 742.759 132.58C739.481 141.454 735.468 151.348 731.565 160.97C730.478 163.649 729.4 166.306 728.349 168.914L730.167 169.743C740.422 149.645 750.224 130.618 759.62 116.612C764.318 109.609 768.883 103.912 773.315 99.9739C777.758 96.0268 781.956 93.9462 785.938 93.9462C790.765 93.9462 796.558 95.1244 801.108 97.8507C805.622 100.556 808.864 104.74 808.864 110.849C808.864 113.124 808.307 116.221 807.238 120.039C806.172 123.843 804.614 128.305 802.651 133.29C798.724 143.259 793.197 155.266 786.804 168.194C785.975 169.853 785.136 171.526 784.292 173.208C779.199 183.363 773.951 193.827 769.882 203.164C767.51 208.607 765.527 213.693 764.207 218.131C762.894 222.545 762.203 226.421 762.501 229.404L762.643 230.826L763.931 230.205C770.157 227.198 776.649 221.547 783.143 214.173C789.648 206.785 796.209 197.606 802.562 187.467C815.161 167.36 826.983 143.405 835.967 121.987C836.124 121.979 836.249 121.983 836.346 121.994C836.44 122.005 836.492 122.02 836.517 122.03C836.522 122.043 836.529 122.063 836.538 122.094C836.569 122.212 836.592 122.405 836.592 122.722C836.592 124.34 835.94 127.389 834.648 131.596C833.369 135.762 831.499 140.953 829.142 146.796C824.427 158.482 817.779 172.735 810.058 186.54C802.332 200.353 793.553 213.678 784.584 223.535C775.563 233.449 766.56 239.621 758.396 239.621L758.386 239.621C748.923 239.708 739.086 229.955 739.086 217.616C739.086 212.86 741.359 204.624 745.234 194.434C749.091 184.294 754.477 172.361 760.586 160.278ZM836.508 122.012C836.507 122.012 836.508 122.013 836.51 122.016C836.508 122.014 836.508 122.013 836.508 122.012Z" stroke="#FAE6A7" stroke-width="2"/>
<path d="M868.032 185.089L866.189 184.329C858.343 199.884 851.257 213.78 844.439 223.79C841.031 228.794 837.724 232.776 834.464 235.498C831.205 238.22 828.069 239.621 824.979 239.621C820.313 239.621 814.841 237.336 810.525 233.411C806.222 229.498 803.166 224.047 803.166 217.802C803.166 201.759 809.417 178.246 817.933 156.951L817.935 156.946C824.467 140.31 831.691 124.371 839.671 112.605C847.695 100.774 856.266 93.4825 865.412 93.4825C874.781 93.4825 886.347 101.864 887.786 117.342L889.707 117.629C891.515 113.215 893.218 108.754 894.828 104.539C895.927 101.661 896.983 98.8982 897.997 96.3433C903.581 96.2316 908.329 96.4272 911.71 97.7821C913.434 98.473 914.752 99.4477 915.65 100.802C916.55 102.16 917.086 103.989 917.086 106.489C917.086 108.139 916.6 110.885 915.68 114.545C914.768 118.176 913.451 122.623 911.837 127.634C908.61 137.652 904.212 149.878 899.532 162.254C895.608 172.471 891.363 182.671 887.436 192.105C886.218 195.032 885.031 197.885 883.893 200.643C879.103 212.25 875.173 222.208 873.62 228.701L873.171 230.579L874.965 229.862C879.85 227.907 885.492 222.764 891.434 215.665C897.407 208.528 903.791 199.28 910.14 188.931C922.733 168.408 935.239 143.473 944.192 121.894C944.348 121.887 944.471 121.891 944.568 121.902C944.662 121.912 944.714 121.928 944.739 121.937C944.744 121.95 944.752 121.97 944.76 122.001C944.792 122.119 944.814 122.313 944.814 122.63C944.814 124.243 944.143 127.288 942.826 131.498C941.522 135.665 939.624 140.857 937.254 146.702C932.515 158.391 925.906 172.649 918.435 186.46C910.961 200.278 902.645 213.613 894.496 223.479C890.421 228.413 886.414 232.448 882.6 235.242C878.774 238.045 875.239 239.528 872.089 239.528H872.079L872.068 239.529C868.074 239.614 864.085 237.479 861.058 234.307C858.028 231.131 856.118 227.075 856.118 223.553C856.118 221.898 856.504 219.713 857.199 217.057C857.89 214.414 858.872 211.366 860.029 208.005C860.884 205.52 861.837 202.857 862.836 200.069C864.524 195.354 866.342 190.278 868.032 185.089ZM944.73 121.92C944.73 121.92 944.731 121.921 944.732 121.923C944.73 121.921 944.73 121.92 944.73 121.92ZM867.701 167.595L867.706 167.585L867.711 167.574C868.72 165.392 869.769 163.171 870.824 160.939C873.338 155.618 875.884 150.23 877.998 145.124C880.988 137.902 883.193 131.067 883.197 125.613C883.338 120.642 882.242 116.587 880.407 113.739C878.572 110.893 875.948 109.2 873.109 109.2C871.317 109.2 869.568 110.116 867.703 112.033C865.843 113.946 863.764 116.959 861.293 121.401C856.344 130.296 849.694 145.166 840.004 169.096C834.839 181.664 830.836 194.304 828.296 204.777C827.027 210.014 826.121 214.721 825.619 218.615C825.121 222.481 825.01 225.635 825.386 227.72L825.618 229.004L826.798 228.446C829.537 227.151 832.538 224.504 835.696 220.905C838.87 217.288 842.269 212.63 845.791 207.216C852.834 196.386 860.412 182.456 867.701 167.595Z" stroke="#FAE6A7" stroke-width="2"/>
<path d="M949.498 102.421L949.664 100.857L948.178 101.369C942.599 103.29 938.445 103.912 935.427 103.912C933.099 103.912 931.701 103.503 930.907 102.938C930.179 102.42 929.843 101.69 929.843 100.645C929.843 99.5941 930.019 98.4769 930.372 97.397C934.455 97.4795 938.459 97.1439 942.291 96.7826C942.729 96.7412 943.165 96.6996 943.599 96.6582C947.199 96.3142 950.624 95.9869 953.882 95.9869C959.444 95.9869 963.754 97.3 966.657 99.6999C969.531 102.076 971.151 105.622 971.151 110.385C971.151 115.378 968.888 123.423 965.319 133.248C961.768 143.026 956.985 154.411 952.057 166.022C951.57 167.17 951.081 168.32 950.592 169.472C946.14 179.95 941.66 190.494 937.964 200.057C933.868 210.653 930.702 220.128 929.617 227.015L929.291 229.086L931.106 228.036C937.024 224.613 943.273 218.732 949.556 211.276C955.849 203.809 962.221 194.707 968.376 184.784C980.572 165.12 991.951 142.169 1000.2 122.172C1000.36 122.165 1000.48 122.169 1000.58 122.18C1000.67 122.19 1000.73 122.206 1000.75 122.215C1000.76 122.228 1000.76 122.249 1000.77 122.279C1000.8 122.397 1000.83 122.59 1000.83 122.905C1000.82 124.491 1000.11 127.513 998.736 131.707C997.376 135.858 995.403 141.039 992.947 146.875C988.034 158.547 981.205 172.8 973.526 186.612C965.843 200.431 957.329 213.773 949.053 223.647C944.913 228.585 940.858 232.625 937.022 235.422C933.171 238.23 929.639 239.714 926.525 239.714C921.324 239.714 916.137 237.864 912.264 234.867C908.389 231.869 905.917 227.799 905.917 223.367C905.917 216.573 908.459 206.853 912.384 195.693C916.298 184.565 921.542 172.126 926.862 159.937C928.588 155.982 930.322 152.051 932.021 148.202C935.552 140.201 938.929 132.549 941.756 125.748C943.85 120.708 945.65 116.117 946.991 112.18C948.327 108.258 949.23 104.925 949.498 102.421ZM963.104 70.6089L963.107 70.6049C966.519 64.3311 971.84 54.2344 977.265 34.9608C983.767 35.0496 989.349 35.1418 993.367 36.2917C995.432 36.8824 996.975 37.7257 998.005 38.9011C999.018 40.057 999.621 41.6335 999.621 43.8758C999.621 46.2115 998.778 48.6904 997.267 51.2696C995.759 53.8457 993.617 56.4658 991.104 59.066C986.073 64.2702 979.663 69.2819 974.134 73.6041C973.234 74.2967 972.35 74.9727 971.491 75.6289C968.014 78.2861 964.96 80.6195 963.009 82.4241C962.169 82.2711 961.503 81.9851 961.029 81.5325C960.499 81.0259 960.075 80.1802 960.075 78.661C960.075 76.6348 961.05 74.3453 963.104 70.6089Z" stroke="#FAE6A7" stroke-width="2"/>
<path d="M1005.26 161.648L1004.71 161.806L1004.57 162.356C1000.02 179.722 997.121 194.931 996.84 207.293C996.559 216.189 997.952 223.308 1001.28 228.112L1001.78 228.821L1002.55 228.437C1008.74 225.365 1015.98 218.511 1021.67 209.573C1027.37 200.619 1031.58 189.466 1031.58 177.729C1031.58 171.898 1030.01 166.506 1027.8 162.206C1029.5 160.489 1031.9 159.62 1034.84 159.62C1040.8 159.62 1048.46 163.432 1052.55 169.739L1052.99 170.426L1053.76 170.125C1067.58 164.669 1081.92 153.712 1094.99 122.185C1095.09 122.244 1095.16 122.323 1095.23 122.422C1095.46 122.771 1095.7 123.518 1095.7 125.041C1095.7 133.533 1090.72 144.566 1083.16 154.61C1075.61 164.632 1065.63 173.468 1055.87 177.645L1055.26 177.904V178.564C1055.26 194.36 1048.07 209.576 1037.91 220.891C1027.74 232.225 1014.75 239.485 1003.3 239.621C996.714 239.665 989.255 237.745 983.456 232.613C977.681 227.504 973.43 219.102 973.43 205.928C973.43 184.497 981.632 151.239 994.143 116.569C1004.8 87.0859 1017.01 58.1215 1031.26 36.5421C1045.54 14.913 1061.67 1 1080.1 1C1087.72 1 1093.38 3.34345 1097.12 6.80921C1100.86 10.2778 1102.74 14.9253 1102.74 19.6652C1102.74 26.43 1099.51 37.8759 1093.84 51.5573C1088.19 65.1925 1080.18 80.9143 1070.76 96.1776C1061.34 111.443 1050.52 126.224 1039.25 137.991C1027.97 149.778 1016.32 158.452 1005.26 161.648ZM1008.2 150.356L1007.24 153.541L1009.79 151.411C1023.63 139.871 1041.51 113.797 1055.97 87.0443C1063.22 73.6463 1069.62 60.0344 1074.26 47.9234C1078.89 35.8426 1081.79 25.1548 1081.93 17.6435L1081.93 17.634V17.6245C1081.93 15.4351 1081.72 13.4194 1081.3 11.8157C1081.08 11.014 1080.81 10.2862 1080.47 9.68276C1080.13 9.08629 1079.69 8.54856 1079.1 8.219L1078.68 7.98013L1078.23 8.16717C1071.8 10.8419 1065.86 16.4222 1060.31 23.9805C1054.74 31.5506 1049.49 41.19 1044.46 52.107C1035.33 71.9057 1026.86 96.0367 1018.48 119.89C1017.62 122.335 1016.76 124.778 1015.91 127.212C1013.03 135.288 1010.43 142.912 1008.2 150.356Z" stroke="#FAE6A7" stroke-width="2"/>
<path d="M1100.65 103.214L1100.89 101.686L1099.4 102.093C1094.36 103.468 1090.46 104.005 1087.42 104.005C1084.82 104.005 1083.21 103.53 1082.28 102.859C1081.4 102.231 1081 101.353 1081 100.182C1081 99.3717 1081.18 98.2934 1081.53 97.2118C1085.61 97.2944 1089.62 96.9588 1093.45 96.5974C1093.89 96.556 1094.33 96.5144 1094.76 96.473C1098.36 96.129 1101.78 95.8018 1105.04 95.8018C1108.42 95.8018 1112.59 96.8832 1115.89 99.6288C1119.16 102.346 1121.66 106.762 1121.66 113.632C1121.66 115.467 1121.08 118.217 1120 121.748C1118.93 125.254 1117.4 129.44 1115.54 134.11C1112.52 141.728 1108.68 150.585 1104.68 159.81C1103.77 161.898 1102.86 164.005 1101.94 166.12C1097 177.57 1092.03 189.268 1088.31 199.555C1084.6 209.797 1082.06 218.787 1082.06 224.759L1082.06 224.823C1082.06 225.89 1082.06 226.853 1082.38 227.922L1082.61 228.673L1083.39 228.634C1086.54 228.476 1090.06 226.385 1093.73 223.081C1097.44 219.742 1101.47 215.016 1105.64 209.289C1113.99 197.828 1122.99 182.236 1131.26 165.369L1131.26 165.364C1141.14 144.95 1149.46 122.806 1158.47 97.1442C1161.92 96.4201 1165.34 96.1728 1168.29 96.1728C1171.51 96.1728 1174.08 96.656 1175.81 97.6892C1177.45 98.6727 1178.42 100.195 1178.42 102.594C1178.42 104.392 1177.93 107.371 1177 111.313C1176.07 115.229 1174.74 120.018 1173.08 125.397C1169.77 136.154 1165.22 149.234 1160.21 162.343C1155.18 175.229 1149.65 188.244 1144.86 199.516C1144.62 200.074 1144.38 200.628 1144.15 201.178C1139.21 212.795 1135.13 222.451 1133.39 227.888L1132.75 229.909L1134.72 229.12C1142.03 226.191 1149.12 220.591 1155.92 213.252C1162.71 205.906 1169.25 196.769 1175.43 186.694C1187.69 166.72 1198.6 142.972 1207.37 121.987C1207.53 121.98 1207.66 121.984 1207.75 121.994C1207.85 122.005 1207.9 122.021 1207.92 122.03C1207.93 122.043 1207.94 122.063 1207.94 122.094C1207.98 122.212 1208 122.406 1208 122.723C1208 124.344 1207.36 127.396 1206.1 131.603C1204.86 135.769 1203.03 140.961 1200.73 146.805C1196.14 158.491 1189.66 172.745 1182.13 186.55C1174.6 200.363 1166.05 213.688 1157.31 223.545C1152.94 228.473 1148.56 232.507 1144.25 235.303C1139.94 238.1 1135.78 239.621 1131.84 239.621C1123.43 239.621 1114.57 233.062 1114.57 223.832C1114.57 221.173 1115.39 217.73 1116.81 213.469C1118.22 209.224 1120.2 204.268 1122.48 198.602L1120.67 197.756C1113.04 211.958 1105.76 222.704 1099.05 229.886C1092.3 237.104 1086.29 240.549 1081.21 240.549C1076.82 240.549 1071.47 239.312 1067.24 236.421C1063.05 233.558 1059.95 229.074 1059.95 222.44C1059.95 215.139 1062.26 205.317 1065.82 194.298C1069.38 183.303 1074.16 171.213 1079.05 159.409C1081.14 154.354 1083.26 149.344 1085.31 144.496C1088.03 138.048 1090.64 131.889 1092.9 126.3C1096.85 116.53 1099.84 108.333 1100.65 103.214ZM1207.91 122.013C1207.91 122.013 1207.92 122.014 1207.92 122.016C1207.91 122.014 1207.91 122.013 1207.91 122.013Z" stroke="#FAE6A7" stroke-width="2"/>
<path d="M1247.45 160.278L1247.45 160.269C1250.4 154.303 1253.44 148.385 1256.34 142.75C1259.41 136.768 1262.31 131.106 1264.77 126.047C1267.18 121.105 1269.19 116.661 1270.58 112.941C1271.94 109.264 1272.75 106.144 1272.59 103.915L1272.54 103.118L1271.75 102.996C1270.77 102.845 1269.71 103.157 1268.67 103.69C1267.6 104.232 1266.44 105.066 1265.18 106.135C1262.67 108.275 1259.71 111.458 1256.42 115.459C1249.84 123.469 1241.88 134.874 1233.57 148.082C1217.06 174.346 1199.12 207.841 1187.95 236.151C1185.79 236.66 1183.54 237.116 1180.99 237.116C1177.67 237.116 1174.44 236.483 1172.08 235.198C1169.76 233.929 1168.36 232.087 1168.36 229.582C1168.36 224.939 1170.3 217.107 1173.54 207.047C1176.77 197.032 1181.23 184.949 1186.19 171.87C1189.97 161.989 1194.08 152.064 1198 142.605C1198.93 140.358 1199.85 138.138 1200.75 135.951C1205.45 124.569 1209.66 114.072 1212.36 105.491L1212.91 103.771L1211.16 104.222C1205.91 105.581 1202.02 105.582 1199.17 105.582C1196.61 105.582 1195.08 105.028 1194.18 104.297C1193.3 103.592 1192.88 102.614 1192.75 101.429C1192.75 100.114 1192.94 98.7342 1193.32 97.3976C1197.39 97.4772 1201.38 97.1426 1205.2 96.7824C1205.64 96.741 1206.07 96.6994 1206.51 96.658C1210.11 96.314 1213.53 95.9868 1216.79 95.9868C1221.46 95.9868 1225.18 97.1547 1227.72 99.4002C1230.24 101.628 1231.74 105.038 1231.74 109.828C1231.74 111.675 1231.17 114.587 1230.12 118.392C1229.08 122.169 1227.58 126.736 1225.79 131.853C1222.96 139.937 1219.39 149.35 1215.68 159.125C1214.69 161.726 1213.7 164.353 1212.7 166.987L1214.51 167.829C1225.32 148.564 1235.68 130.116 1245.57 116.48C1250.52 109.662 1255.31 104.094 1259.96 100.239C1264.61 96.3765 1269.01 94.317 1273.17 94.317C1278 94.317 1283.79 95.4952 1288.34 98.2215C1292.86 100.926 1296.1 105.111 1296.1 111.22C1296.1 113.491 1295.53 116.566 1294.43 120.358C1293.33 124.134 1291.73 128.56 1289.7 133.51C1285.66 143.41 1279.97 155.348 1273.39 168.278L1273.39 168.278L1273.39 168.288C1271.68 171.742 1269.94 175.21 1268.21 178.645C1263.62 187.767 1259.15 196.662 1255.77 204.476C1253.44 209.858 1251.61 214.775 1250.62 218.942C1249.64 223.062 1249.42 226.652 1250.56 229.242L1250.99 230.237L1251.95 229.72C1258.02 226.435 1264.36 220.654 1270.71 213.237C1277.08 205.809 1283.5 196.685 1289.73 186.651C1302.07 166.756 1313.66 143.219 1322.46 122.079C1322.62 122.072 1322.74 122.076 1322.84 122.087C1322.93 122.097 1322.98 122.113 1323.01 122.122C1323.01 122.135 1323.02 122.156 1323.03 122.187C1323.06 122.305 1323.08 122.498 1323.08 122.815C1323.08 124.432 1322.43 127.481 1321.14 131.689C1319.86 135.854 1317.99 141.046 1315.63 146.889C1310.92 158.575 1304.27 172.828 1296.55 186.633C1288.82 200.446 1280.05 213.77 1271.08 223.628C1262.06 233.542 1253.05 239.714 1244.89 239.714C1240.41 239.714 1235.68 237.313 1232.04 233.294C1228.42 229.287 1225.95 223.747 1225.95 217.616C1225.95 212.86 1228.22 204.624 1232.1 194.434C1235.95 184.294 1241.34 172.361 1247.45 160.278ZM1323 122.105C1323 122.105 1323 122.106 1323 122.108C1323 122.106 1323 122.105 1323 122.105Z" stroke="#FAE6A7" stroke-width="2"/>
<path d="M1354.9 185.182L1353.05 184.422C1345.21 199.977 1338.12 213.872 1331.3 223.883C1327.9 228.887 1324.59 232.868 1321.33 235.591C1318.07 238.312 1314.93 239.714 1311.84 239.714C1307.18 239.714 1301.71 237.429 1297.39 233.504C1293.09 229.591 1290.03 224.139 1290.03 217.895C1290.03 201.852 1296.28 178.338 1304.8 157.044L1304.8 157.038C1311.33 140.402 1318.56 124.463 1326.54 112.697C1334.56 100.867 1343.13 93.5751 1352.28 93.5751C1361.65 93.5751 1373.21 101.956 1374.65 117.435L1376.57 117.721C1378.38 113.308 1380.08 108.847 1381.69 104.632C1382.79 101.754 1383.85 98.9908 1384.86 96.4359C1390.45 96.3242 1395.19 96.5198 1398.57 97.8747C1400.3 98.5656 1401.62 99.5403 1402.51 100.895C1403.41 102.253 1403.95 104.081 1403.95 106.582C1403.95 108.232 1403.46 110.977 1402.54 114.637C1401.63 118.269 1400.31 122.716 1398.7 127.726C1395.47 137.744 1391.08 149.97 1386.4 162.346C1382.49 172.545 1378.2 182.843 1374.24 192.374C1373.18 194.92 1372.14 197.41 1371.14 199.83C1366.41 211.278 1362.46 221.18 1360.77 227.66L1360.26 229.592L1362.11 228.839C1368.58 226.203 1374.62 221.015 1380.01 214.719C1385.3 208.546 1390.02 201.246 1393.98 194.075C1394.8 194.027 1395.34 194.139 1395.67 194.358C1395.99 194.567 1396.35 195.028 1396.35 196.278C1396.32 199.032 1395 203.133 1392.66 207.826C1390.34 212.485 1387.07 217.606 1383.29 222.363C1379.51 227.121 1375.24 231.484 1370.92 234.647C1366.58 237.825 1362.31 239.714 1358.49 239.714C1355.27 239.714 1351.38 237.821 1348.26 234.77C1345.15 231.729 1342.98 227.704 1342.98 223.646C1342.98 221.99 1343.37 219.805 1344.06 217.149C1344.75 214.506 1345.74 211.459 1346.89 208.097C1347.75 205.612 1348.7 202.95 1349.7 200.162C1351.39 195.446 1353.21 190.37 1354.9 185.182ZM1354.57 167.595L1354.57 167.585L1354.58 167.574C1355.58 165.391 1356.63 163.171 1357.69 160.938C1360.2 155.618 1362.75 150.23 1364.86 145.124C1367.85 137.902 1370.06 131.067 1370.06 125.612C1370.2 120.642 1369.11 116.586 1367.27 113.739C1365.44 110.892 1362.81 109.2 1359.97 109.2C1358.18 109.2 1356.43 110.116 1354.57 112.033C1352.71 113.945 1350.63 116.958 1348.16 121.401C1343.21 130.296 1336.56 145.166 1326.87 169.095C1321.7 181.664 1317.7 194.304 1315.16 204.777C1313.89 210.013 1312.98 214.721 1312.48 218.615C1311.99 222.481 1311.87 225.635 1312.25 227.719L1312.48 228.999L1313.66 228.447C1316.42 227.152 1319.44 224.505 1322.6 220.906C1325.78 217.288 1329.17 212.63 1332.69 207.215C1339.72 196.385 1347.28 182.455 1354.57 167.595Z" stroke="#FAE6A7" stroke-width="2"/>
<path d="M1417.19 200.992C1422.48 200.992 1427.58 202.171 1431.31 204.209C1435.05 206.256 1437.24 209.046 1437.24 212.236C1437.24 217.05 1434.14 223.807 1429.44 229.416C1424.74 235.035 1418.74 239.157 1413.2 239.157C1409.94 239.157 1406.05 237.442 1402.94 234.638C1399.85 231.84 1397.7 228.101 1397.7 224.202C1397.7 222.882 1398.19 220.754 1399.19 218.243C1400.17 215.758 1401.6 212.989 1403.38 210.405C1407 205.17 1411.87 200.992 1417.19 200.992Z" stroke="#FAE6A7" stroke-width="2"/>
<path d="M1520.24 120.51L1520.2 120.484L1520.16 120.463C1518.52 119.527 1517.02 118.317 1515.72 117.265C1515.54 117.12 1515.36 116.978 1515.19 116.84L1514.1 115.965L1513.62 117.283C1500.97 152.553 1488.03 182.764 1476.43 204.141C1470.62 214.835 1465.17 223.28 1460.28 229.038C1457.84 231.917 1455.56 234.095 1453.47 235.545C1451.37 237.001 1449.54 237.673 1447.98 237.673C1445.6 237.673 1443.77 236.684 1442.54 235.017C1441.33 233.382 1440.64 231.027 1440.71 228.18C1441.14 227.643 1441.56 227.105 1441.98 226.565C1458.12 206.006 1475.75 183.555 1509.26 108.846L1509.42 108.495L1509.3 108.129C1508.24 104.851 1507.96 101.269 1507.96 96.471C1507.96 81.5113 1510.86 71.0946 1515.01 64.4532C1519.14 57.8266 1524.49 54.9867 1529.5 54.9867C1534.34 54.9867 1539.28 57.4839 1542.21 62.1926C1535.96 70.9738 1528.72 82.3376 1519.42 100.562L1519.42 100.571L1519.41 100.581C1517.99 103.522 1517.37 105.348 1517.37 108.159C1517.37 109.427 1517.59 110.555 1518.15 111.472C1518.72 112.411 1519.58 113.036 1520.66 113.378C1523.29 114.238 1525.71 114.99 1527.91 115.672C1528.17 115.753 1528.43 115.833 1528.68 115.912C1530.58 116.5 1532.32 117.036 1533.9 117.55C1537.5 118.718 1540.24 119.744 1542.32 120.934C1544.37 122.11 1545.72 123.421 1546.58 125.148C1547.46 126.898 1547.88 129.174 1547.88 132.369C1547.88 134.481 1547.22 137.542 1546.02 141.365C1544.83 145.164 1543.14 149.63 1541.11 154.516C1537.34 163.633 1532.45 174.155 1527.67 184.456C1527.33 185.198 1526.98 185.938 1526.64 186.676C1522.51 195.49 1518.59 204.138 1515.62 211.539C1512.67 218.899 1510.61 225.158 1510.32 229.138L1510.2 230.855L1511.75 230.114C1517.91 227.177 1524.37 221.577 1530.85 214.237C1537.34 206.885 1543.91 197.723 1550.28 187.584C1562.91 167.476 1574.81 143.452 1583.79 121.894C1583.95 121.887 1584.07 121.89 1584.17 121.901C1584.26 121.912 1584.31 121.928 1584.34 121.937C1584.34 121.95 1584.35 121.97 1584.36 122.001C1584.39 122.119 1584.41 122.313 1584.41 122.63C1584.41 124.246 1583.76 127.294 1582.46 131.502C1581.17 135.667 1579.29 140.858 1576.92 146.701C1572.17 158.387 1565.48 172.64 1557.71 186.445C1549.93 200.258 1541.09 213.582 1532.06 223.44C1522.97 233.352 1513.9 239.528 1505.66 239.528H1505.65L1505.65 239.528C1495 239.703 1485.89 229.418 1485.89 217.895C1485.89 216.34 1486.47 213.928 1487.58 210.788C1488.68 207.68 1490.26 203.963 1492.16 199.841C1495.96 191.599 1501.04 181.808 1506.13 172.155C1507.28 169.964 1508.44 167.78 1509.58 165.623C1513.46 158.287 1517.18 151.265 1520.13 145.358C1522.05 141.536 1523.65 138.162 1524.77 135.459C1525.34 134.108 1525.79 132.909 1526.1 131.896C1526.4 130.905 1526.6 130.014 1526.6 129.308C1526.6 127.053 1525.85 125.407 1524.63 124.031C1523.55 122.807 1522.09 121.793 1520.58 120.749C1520.47 120.669 1520.35 120.589 1520.24 120.51ZM1584.33 121.919C1584.33 121.92 1584.33 121.921 1584.33 121.923C1584.33 121.921 1584.33 121.919 1584.33 121.919Z" stroke="#FAE6A7" stroke-width="2"/>
<path d="M1588.83 109.932L1588.84 109.922L1588.85 109.912C1590.35 107.622 1592.29 105.687 1594.95 104.317C1597.62 102.944 1601.07 102.109 1605.63 102.109C1606.77 102.109 1607.85 102.114 1608.82 102.358L1609.43 102.51L1609.83 102.025C1613.7 97.3453 1619.1 93.8534 1625.29 93.8534C1640.37 93.8534 1655.91 103.912 1655.91 120.218C1655.91 131.447 1651.7 148.96 1644.92 167.33C1638.14 185.677 1628.86 204.749 1618.82 219.083L1618.81 219.084C1608.39 233.992 1595.88 239.435 1586.62 239.435C1577.71 239.435 1569.41 236.428 1563.35 230.634C1557.3 224.849 1553.4 216.216 1553.4 204.815C1553.4 191.45 1557.69 174.353 1564.29 157.241C1570.88 140.145 1579.75 123.125 1588.83 109.932ZM1586.31 230.255L1586.87 230.437L1587.3 230.041C1591.05 226.599 1595.7 220.216 1600.56 212.081C1605.43 203.922 1610.55 193.926 1615.21 183.195C1624.51 161.765 1632.04 137.263 1632.04 118.548C1632.04 113.792 1631.32 110.484 1629.72 108.17C1628.09 105.819 1625.69 104.664 1622.75 103.941L1622.2 103.806L1621.8 104.207C1612.65 113.403 1601.77 133.416 1593.18 154.651C1584.59 175.895 1578.2 198.631 1578.2 213.349C1578.2 217.556 1578.79 221.28 1580.08 224.202C1581.39 227.142 1583.43 229.311 1586.31 230.255Z" stroke="#FAE6A7" stroke-width="2"/>
<path d="M72.6327 318.818C72.6327 321.57 71.6335 324.489 69.8589 327.517C68.0864 330.542 65.5739 333.617 62.6313 336.664C56.7428 342.76 49.243 348.631 42.7888 353.647C41.5191 354.626 40.2748 355.572 39.0778 356.482C35.2253 359.412 31.8614 361.971 29.7084 364.037C28.6784 363.841 27.832 363.486 27.223 362.908C26.5512 362.27 26.0391 361.236 26.0391 359.447C26.0391 357.044 27.203 354.291 29.5365 349.902C33.5059 342.608 39.751 330.751 46.0124 308.148C46.1091 308.15 46.2057 308.152 46.3021 308.154C53.9301 308.328 60.47 308.477 65.1844 309.83C67.6277 310.532 69.4705 311.53 70.7045 312.931C71.9207 314.311 72.6327 316.183 72.6327 318.818Z" stroke="#FAE6A7" stroke-width="2"/>
<path d="M1398.09 66.9719L1398.09 66.9721C1395.79 68.4871 1392.8 69.255 1389.3 69.4309C1385.8 69.6066 1381.86 69.1883 1377.7 68.3909C1369.38 66.795 1360.36 63.7127 1352.6 61.0192L1352.6 61.0191C1351.18 60.5248 1349.79 60.0316 1348.44 59.5544C1343.8 57.9118 1339.7 56.4591 1336.74 55.8016C1336.34 54.8615 1336.18 53.9668 1336.34 53.147C1336.52 52.2351 1337.13 51.2404 1338.63 50.2837L1338.63 50.2785L1338.64 50.2731C1340.62 48.956 1343.58 48.4954 1348.56 48.0257C1356.87 47.3789 1370.19 46.0889 1392.46 38.9445C1392.52 39.042 1392.58 39.1393 1392.64 39.2364C1396.64 45.6536 1400.08 51.165 1401.53 55.8248C1402.28 58.246 1402.45 60.3305 1401.96 62.1292C1401.47 63.9021 1400.3 65.5245 1398.09 66.9719Z" stroke="#FAE6A7" stroke-width="2"/>
</svg>
