<svg width="1440" height="318" viewBox="0 0 1440 318" fill="none" xmlns="http://www.w3.org/2000/svg">
<path d="M62.3931 241.962L62.5723 241.987L62.7488 241.947C75.3523 239.127 86.0564 229.297 93.5847 217.147C101.12 204.986 105.575 190.344 105.575 177.647C105.575 150.449 97.9557 131.181 90.3983 112.675C90.2203 112.239 90.0423 111.804 89.8645 111.369C82.4943 93.3355 75.3705 75.9051 75.3705 52.2061C75.3705 19.2316 97.2407 0.999512 116.656 0.999512C130.537 0.999512 140.553 5.1981 147.522 11.6213C154.5 18.0535 158.507 26.7946 160.211 36.0171C161.703 45.8597 159.979 56.1435 156 66.5767C150.829 78.8194 141.914 86.2521 133.893 86.2521C130.489 86.2521 127.276 85.1024 124.405 82.5166C134.319 71.0177 139.646 55.2763 139.886 41.0243L139.887 41.0159V41.0075C139.887 26.4871 134.91 13.4833 124.081 7.26927L123.832 7.12658L123.546 7.13733C116.69 7.3945 110.425 11.6112 105.913 18.4844C101.398 25.3624 98.5809 34.9677 98.5809 46.2442C98.5809 68.0913 105.553 85.8329 112.75 104.149C113.084 104.998 113.418 105.849 113.752 106.701C121.297 125.952 128.785 146.145 128.785 172.893C128.785 192.722 122.721 212.029 111.225 226.357C99.7463 240.665 82.8315 250.042 61.0001 250.042C39.6164 250.042 24.8917 242.843 15.4968 231.881C6.07945 220.893 1.91406 206.003 1.91406 190.457C1.91406 173.489 7.23426 155.952 16.7775 142.691C26.3121 129.443 40.0096 120.52 56.8095 120.559H56.8118C68.1016 120.559 76.2832 125.638 81.6775 133.307C87.0972 141.012 89.721 151.369 89.721 161.856C89.721 172.829 87.0352 183.567 81.9353 191.529C76.8497 199.468 69.4046 204.603 59.792 204.603C54.8336 204.603 50.9777 202.573 49.0041 199.995C54.3651 194.449 59.1016 186.485 62.534 177.813C66.0936 168.821 68.2826 158.987 68.2826 150.174C68.2826 140.604 65.2589 132.231 58.3325 128.507L57.9922 128.324L57.6174 128.418C48.7476 130.625 41.0207 139.583 35.5381 151.322C30.0277 163.12 26.6548 177.988 26.6548 192.471C26.6548 204.239 29.1563 215.702 34.8861 224.691C40.6363 233.712 49.609 240.188 62.3931 241.962Z" stroke="#FAE6A7" stroke-width="2"/>
<path d="M204.984 88.5017L204.713 88.3307L204.394 88.3487C202.434 88.4589 200.393 89.6684 198.38 91.4858C196.339 93.3285 194.191 95.9215 192.012 99.0589C187.651 105.339 183.081 113.926 178.927 123.408C170.634 142.341 163.902 165.072 163.902 180.386C163.902 187.955 165.959 193.786 170.23 197.274L170.586 197.564L171.038 197.484C187.496 194.554 202.898 180.874 216.071 163.426C229.146 146.107 240.171 124.886 247.991 106.158C248.083 106.157 248.156 106.16 248.216 106.167C248.239 106.17 248.259 106.173 248.275 106.176C248.296 106.264 248.313 106.415 248.313 106.666C248.303 108.032 247.704 110.648 246.507 114.296C245.323 117.903 243.594 122.403 241.412 127.474C237.049 137.613 230.892 149.988 223.708 161.977C216.52 173.972 208.326 185.542 199.896 194.099C191.427 202.698 182.902 208.068 175.051 208.068C155.825 208.068 141.417 196.728 141.417 180.386C141.417 166.315 145.27 146.958 152.036 128.893C158.81 110.804 168.432 94.2011 179.845 85.4704C181.654 84.1048 184.454 83.0373 187.551 82.3147C190.629 81.5966 193.896 81.2432 196.556 81.2432C203.65 81.2432 210.387 83.4191 215.337 87.7811C220.267 92.1261 223.505 98.7112 223.505 107.716C223.505 115.486 220.828 127.948 215.82 138.455C213.319 143.702 210.264 148.403 206.723 151.778C203.189 155.148 199.226 157.15 194.865 157.15C191.442 157.15 187.643 155.069 186.11 151.644C190.123 146.729 195.343 136.699 199.598 126.116C203.993 115.188 207.463 103.412 207.463 95.7924C207.463 94.1462 207.342 92.6681 206.992 91.448C206.639 90.219 206.027 89.1605 204.984 88.5017ZM248.334 106.191C248.334 106.191 248.334 106.191 248.332 106.19L248.334 106.191Z" stroke="#FAE6A7" stroke-width="2"/>
<path d="M311.127 106.159L310.137 106.043L310.018 107.032C308.062 123.201 300.014 148.499 288.475 169.748C282.708 180.368 276.097 189.923 268.984 196.809C261.86 203.706 254.34 207.826 246.736 207.826C239.038 207.826 232.851 205.255 228.574 200.316C224.28 195.358 221.801 187.886 221.801 177.889C221.801 166.708 225.397 152.44 230.946 138.108C236.488 123.793 243.943 109.503 251.587 98.2926C256.978 90.5222 261.869 87.8494 266.308 87.8494C268.236 87.8494 270.05 88.0801 271.93 88.7571L273.466 89.3102L273.261 87.6905C272.946 85.2055 273.947 82.8655 275.982 81.1113C278.027 79.3487 281.126 78.1815 284.914 78.1815C290.34 78.1815 296.497 80.4444 301.459 84.1744C306.424 87.9066 310.056 92.9996 310.661 98.559L310.743 99.3149L311.493 99.4377C315.998 100.175 321.052 100.418 325.992 100.418C335.432 100.418 344.821 99.5014 351.562 98.0265C351.916 98.5157 352.135 99.1216 352.135 99.901C352.135 100.597 351.739 101.42 350.67 102.312C349.606 103.199 347.982 104.059 345.821 104.807C341.507 106.301 335.261 107.28 327.683 107.28H327.675L327.666 107.28C322.983 107.359 317.319 106.883 311.127 106.159ZM289.289 102.044L289.387 101.283L288.678 100.991C283.211 98.7391 278.722 96.3897 275.902 93.3408L274.972 92.3352L274.298 93.5273C266.487 107.331 258.369 126.263 252.205 143.995C246.055 161.683 241.789 178.345 241.789 187.556C241.789 190.087 242.1 192.61 242.782 194.776C243.459 196.925 244.539 198.831 246.159 199.975L246.495 200.212L246.901 200.144C248.567 199.866 250.328 198.574 252.089 196.748C253.888 194.883 255.832 192.307 257.852 189.186C261.896 182.941 266.315 174.407 270.547 164.745C279.006 145.428 286.776 121.465 289.289 102.044Z" stroke="#FAE6A7" stroke-width="2"/>
<path d="M361.978 160.796L360.135 160.036C353.32 173.549 347.169 185.609 341.253 194.295C338.296 198.637 335.432 202.083 332.614 204.437C329.797 206.789 327.102 207.987 324.46 207.987C320.447 207.987 315.724 206.019 311.994 202.628C308.278 199.248 305.646 194.547 305.646 189.168C305.646 175.259 311.068 154.855 318.462 136.366L318.464 136.36C324.137 121.913 330.407 108.081 337.329 97.8743C344.295 87.6031 351.705 81.3237 359.578 81.3237C367.642 81.3237 377.635 88.5462 378.879 101.927L380.8 102.214C382.37 98.3816 383.852 94.5017 385.251 90.838C386.194 88.3692 387.099 85.9985 387.969 83.8067C392.782 83.7135 396.848 83.8899 399.74 85.0486C401.218 85.6412 402.34 86.4729 403.101 87.6223C403.865 88.7749 404.327 90.3362 404.327 92.4891C404.327 93.9041 403.909 96.2748 403.11 99.4535C402.318 102.604 401.175 106.463 399.774 110.813C396.972 119.512 393.153 130.128 389.089 140.876C385.682 149.748 381.996 158.604 378.586 166.797C377.527 169.34 376.496 171.819 375.507 174.214C371.348 184.293 367.93 192.952 366.579 198.603L366.13 200.482L367.923 199.764C372.199 198.053 377.117 193.564 382.279 187.397C387.473 181.191 393.021 173.153 398.538 164.162C409.463 146.354 420.313 124.727 428.089 105.997C428.18 105.996 428.253 105.999 428.312 106.006C428.336 106.008 428.356 106.011 428.372 106.014C428.393 106.104 428.41 106.255 428.41 106.508C428.41 107.886 427.833 110.513 426.688 114.171C425.558 117.785 423.911 122.291 421.853 127.366C417.739 137.514 412.001 149.893 405.515 161.884C399.025 173.882 391.806 185.455 384.737 194.015C381.201 198.295 377.728 201.791 374.429 204.209C371.116 206.636 368.073 207.907 365.377 207.907H365.366L365.356 207.907C361.935 207.98 358.503 206.15 355.891 203.412C353.275 200.67 351.637 197.179 351.637 194.163C351.637 192.742 351.968 190.857 352.571 188.554C353.171 186.263 354.022 183.62 355.026 180.702C355.768 178.546 356.595 176.235 357.462 173.814C358.93 169.717 360.51 165.304 361.978 160.796ZM428.431 106.03C428.431 106.03 428.43 106.03 428.429 106.029L428.431 106.03ZM361.684 145.619L361.689 145.609L361.694 145.599C362.569 143.705 363.48 141.778 364.395 139.84C366.579 135.217 368.793 130.533 370.63 126.095C373.227 119.823 375.152 113.866 375.156 109.1C375.279 104.763 374.322 101.214 372.711 98.7149C371.1 96.2155 368.784 94.7118 366.263 94.7118C364.657 94.7118 363.106 95.5344 361.474 97.2125C359.846 98.8859 358.033 101.515 355.885 105.377C351.583 113.11 345.804 126.032 337.388 146.815C332.899 157.737 329.421 168.721 327.214 177.824C326.11 182.376 325.322 186.469 324.886 189.857C324.453 193.217 324.354 195.974 324.684 197.805L324.916 199.089L326.096 198.531C328.5 197.395 331.121 195.079 333.867 191.95C336.629 188.802 339.586 184.751 342.646 180.045C348.767 170.633 355.352 158.529 361.684 145.619Z" stroke="#FAE6A7" stroke-width="2"/>
<path d="M431.404 142.522L430.877 142.665L430.712 143.185C424.996 161.224 421.241 176.426 421.241 186.992C421.241 191.781 422.229 195.719 424.164 198.447L424.658 199.143L425.423 198.765C430.489 196.263 435.958 191.445 441.523 185.14C447.101 178.82 452.832 170.938 458.412 162.224C469.46 144.973 479.957 124.397 487.532 106.078C487.623 106.076 487.696 106.08 487.754 106.086C487.778 106.089 487.798 106.092 487.814 106.095C487.835 106.184 487.852 106.335 487.852 106.588C487.852 107.966 487.275 110.593 486.122 114.249C484.982 117.862 483.317 122.367 481.223 127.441C477.036 137.586 471.151 149.961 464.372 161.948C457.588 173.942 449.93 185.508 442.203 194.061C438.34 198.338 434.483 201.835 430.735 204.256C426.983 206.68 423.401 207.987 420.067 207.987L420.059 207.987C410.757 208.063 401.092 199.539 401.092 189.007C401.092 177.779 404.61 160.421 410.492 140.631C416.366 120.868 424.57 98.7668 433.886 78.0857C443.204 57.3976 453.617 38.169 463.897 24.1294C469.038 17.1079 474.121 11.4192 478.99 7.49524C483.873 3.55981 488.436 1.48303 492.557 1.48303C495.179 1.48303 497.828 2.9114 499.853 5.12567C501.876 7.33831 503.155 10.2088 503.155 12.8902C503.155 20.8888 500.707 32.4565 496.476 45.5066C492.252 58.5342 486.277 72.9594 479.283 86.6461C472.286 100.336 464.284 113.258 456.016 123.295C447.718 133.367 439.267 140.391 431.404 142.522ZM433.775 133.751L432.922 136.367L435.256 134.909C438.041 133.169 441.104 129.957 444.312 125.763C447.534 121.549 450.96 116.266 454.454 110.302C461.442 98.3738 468.743 83.6588 475.285 69.1844C481.828 54.7081 487.622 40.4513 491.597 29.432C493.583 23.9248 495.121 19.2101 496.07 15.6738C496.544 13.9085 496.877 12.4127 497.044 11.2475C497.127 10.6659 497.172 10.1422 497.166 9.69521C497.161 9.27579 497.111 8.80704 496.915 8.41476L496.51 7.6059L495.665 7.92708C494.147 8.50398 492.481 9.85535 490.725 11.7195C488.948 13.607 486.993 16.1139 484.909 19.1308C480.739 25.1668 475.998 33.3217 471.06 42.8328C461.182 61.8571 450.473 86.3882 441.921 110.435C438.937 118.423 436.195 126.329 433.775 133.751Z" stroke="#FAE6A7" stroke-width="2"/>
<path d="M515.497 160.796L513.653 160.036C506.838 173.549 500.687 185.609 494.772 194.295C491.815 198.637 488.95 202.083 486.132 204.437C483.316 206.789 480.621 207.987 477.979 207.987C473.965 207.987 469.243 206.019 465.513 202.628C461.797 199.248 459.165 194.547 459.165 189.168C459.165 175.259 464.587 154.855 471.981 136.366L471.983 136.36C477.656 121.913 483.926 108.081 490.848 97.8743C497.814 87.6031 505.224 81.3237 513.096 81.3237C521.161 81.3237 531.153 88.5462 532.398 101.927L534.319 102.214C535.888 98.3816 537.37 94.5017 538.77 90.838C539.713 88.3691 540.618 85.9985 541.487 83.8067C546.301 83.7135 550.367 83.8899 553.258 85.0486C554.737 85.6412 555.858 86.4729 556.62 87.6223C557.384 88.7749 557.846 90.3362 557.846 92.4891C557.846 93.9041 557.427 96.2748 556.629 99.4535C555.837 102.604 554.694 106.463 553.293 110.813C550.491 119.512 546.672 130.128 542.607 140.876C539.201 149.748 535.514 158.604 532.104 166.797C531.046 169.34 530.014 171.819 529.026 174.214C524.867 184.293 521.449 192.952 520.098 198.603L519.649 200.482L521.442 199.764C525.718 198.053 530.636 193.564 535.798 187.397C540.991 181.191 546.54 173.153 552.056 164.162C562.982 146.354 573.832 124.727 581.608 105.997C581.699 105.996 581.772 105.999 581.831 106.006C581.855 106.008 581.874 106.011 581.89 106.014C581.911 106.103 581.928 106.255 581.928 106.508C581.928 107.886 581.352 110.513 580.207 114.171C579.076 117.785 577.429 122.291 575.372 127.366C571.257 137.514 565.519 149.893 559.033 161.884C552.543 173.882 545.325 185.455 538.256 194.015C534.72 198.295 531.247 201.791 527.947 204.209C524.634 206.636 521.592 207.907 518.895 207.907H518.885L518.874 207.907C515.454 207.98 512.022 206.15 509.41 203.412C506.794 200.67 505.156 197.179 505.156 194.163C505.156 192.742 505.487 190.857 506.09 188.554C506.689 186.263 507.54 183.62 508.545 180.702C509.286 178.546 510.114 176.235 510.981 173.814C512.448 169.717 514.029 165.304 515.497 160.796ZM515.203 145.617L515.208 145.608L515.212 145.599C516.088 143.705 516.998 141.778 517.914 139.84C520.098 135.218 522.311 130.533 524.149 126.095C526.746 119.823 528.671 113.866 528.675 109.1C528.798 104.763 527.841 101.214 526.23 98.7149C524.619 96.2155 522.303 94.7118 519.781 94.7118C518.175 94.7118 516.624 95.5344 514.992 97.2125C513.364 98.8859 511.552 101.515 509.403 105.377C505.101 113.11 499.323 126.032 490.907 146.815C486.418 157.737 482.939 168.721 480.732 177.824C479.629 182.376 478.841 186.469 478.404 189.857C477.972 193.217 477.872 195.974 478.203 197.805L478.434 199.084L479.611 198.533C482.036 197.397 484.673 195.081 487.429 191.951C490.203 188.803 493.164 184.751 496.225 180.045C502.347 170.632 508.911 158.527 515.203 145.617Z" stroke="#FAE6A7" stroke-width="2"/>
<path d="M661.627 139.265L661.631 139.257C663.572 135.331 665.533 131.435 667.439 127.651C670.739 121.098 673.871 114.877 676.44 109.399C678.468 105.074 680.161 101.18 681.317 97.9204C682.459 94.7026 683.132 91.9608 682.996 90.0024L682.941 89.2118L682.158 89.0849C681.237 88.9355 680.276 89.3146 679.391 89.8567C678.474 90.4189 677.461 91.2669 676.377 92.3361C674.202 94.4789 671.613 97.6336 668.747 101.539C663.007 109.358 656.068 120.306 648.986 132.501C634.962 156.653 620.314 185.813 613.276 205.433C611.93 205.634 610.202 205.812 608.3 205.812C605.014 205.812 601.653 205.392 599.153 204.277C596.696 203.182 595.205 201.499 595.205 198.916C595.205 196.811 595.767 193.538 596.787 189.398C597.801 185.282 599.248 180.385 600.975 175.065C604.429 164.429 608.991 152.146 613.415 141.125C615.886 135.135 618.435 129.268 620.861 123.712C621.167 123.011 621.472 122.315 621.774 121.625C623.864 116.842 625.845 112.312 627.577 108.172C629.558 103.437 631.225 99.1886 632.367 95.6336C633.498 92.1155 634.159 89.1469 634.025 87.0281L633.975 86.2317L633.187 86.104C632.236 85.9497 631.252 86.3895 630.365 86.9817C629.437 87.6016 628.407 88.5311 627.299 89.6996C625.078 92.042 622.42 95.4767 619.474 99.7045C613.577 108.169 606.443 119.933 599.222 132.806C584.969 158.217 570.306 188.073 564.095 205.577C563.183 205.595 562.292 205.644 561.438 205.692L561.359 205.697C560.304 205.756 559.312 205.812 558.363 205.812C555.167 205.812 552.581 205.441 550.806 204.307C549.133 203.238 548.006 201.371 548.006 197.869C548.006 196.449 548.411 194.059 549.187 190.859C549.957 187.685 551.07 183.795 552.44 179.416C555.182 170.658 558.94 159.982 563.003 149.239L563.003 149.237C566.338 140.387 570.118 131.565 573.718 123.164C574.63 121.036 575.53 118.936 576.409 116.868C580.744 106.666 584.56 97.2534 586.555 89.516L587.003 87.7797L585.29 88.3113C580.68 89.7423 577.079 90.2805 574.713 90.2805C572.086 90.2805 570.626 89.7356 569.833 89.0799C569.077 88.4548 568.786 87.6086 568.786 86.6077C568.786 85.9827 568.908 85.3048 569.157 84.6438C572.696 84.7123 576.165 84.4213 579.479 84.1087C579.859 84.0728 580.238 84.0366 580.614 84.0007C583.742 83.7019 586.71 83.4183 589.533 83.4183C593.568 83.4183 596.764 84.4277 598.939 86.35C601.095 88.2545 602.387 91.1771 602.387 95.3088C602.387 96.8991 601.955 99.2482 601.1 102.324C600.249 105.381 599.001 109.083 597.416 113.35C594.244 121.883 589.743 132.618 584.428 144.861L586.217 145.75C589.409 140.072 592.455 134.521 595.377 129.196C601.769 117.546 607.569 106.974 613.027 98.5094C617 92.348 620.749 87.3716 624.362 83.9444C627.987 80.5063 631.349 78.7455 634.558 78.7455C638.239 78.7455 642.673 79.7004 646.151 81.9217C649.59 84.1174 652.083 87.5297 652.083 92.5696C652.083 94.7193 651.467 97.8601 650.366 101.759C649.271 105.635 647.721 110.18 645.903 115.104C643.057 122.81 639.572 131.4 636.182 139.757C635.238 142.083 634.302 144.392 633.388 146.658L635.207 147.486C644.114 130.029 652.624 113.511 660.78 101.354C664.857 95.2762 668.815 90.3379 672.652 86.9285C676.5 83.5097 680.117 81.7264 683.529 81.7264C687.704 81.7264 692.71 82.7461 696.637 85.0989C700.528 87.4303 703.309 91.0263 703.309 96.2756C703.309 98.2339 702.829 100.91 701.901 104.222C700.977 107.52 699.626 111.391 697.922 115.718C694.513 124.372 689.715 134.796 684.163 146.023C683.443 147.463 682.714 148.917 681.982 150.377C677.558 159.197 672.998 168.289 669.463 176.401C667.402 181.132 665.677 185.554 664.528 189.416C663.386 193.254 662.78 196.64 663.042 199.257L663.184 200.68L664.472 200.058C669.902 197.436 675.554 192.513 681.199 186.102C686.856 179.679 692.559 171.701 698.079 162.89C709.01 145.444 719.268 124.666 727.069 106.078C727.161 106.076 727.235 106.079 727.294 106.086C727.318 106.089 727.338 106.092 727.354 106.095C727.375 106.184 727.392 106.335 727.392 106.588C727.392 107.971 726.831 110.601 725.709 114.257C724.6 117.87 722.977 122.375 720.93 127.448C716.837 137.593 711.066 149.967 704.362 161.952C697.655 173.944 690.036 185.508 682.255 194.059C674.423 202.666 666.637 207.987 659.607 207.987L659.598 207.987C651.463 208.062 642.968 199.662 642.968 189.007C642.968 184.903 644.932 177.77 648.299 168.919C651.646 160.117 656.322 149.757 661.627 139.265Z" stroke="#FAE6A7" stroke-width="2"/>
<path d="M754.954 160.796L753.11 160.036C746.295 173.549 740.144 185.609 734.229 194.295C731.272 198.637 728.407 202.083 725.589 204.437C722.773 206.789 720.078 207.987 717.436 207.987C713.422 207.987 708.7 206.019 704.97 202.628C701.254 199.248 698.622 194.547 698.622 189.168C698.622 175.259 704.044 154.855 711.438 136.366L711.44 136.36C717.113 121.913 723.383 108.081 730.305 97.8743C737.271 87.6031 744.681 81.3237 752.553 81.3237C760.618 81.3237 770.61 88.5462 771.855 101.927L773.776 102.214C775.345 98.3816 776.827 94.5018 778.227 90.8381C779.169 88.3692 780.075 85.9985 780.944 83.8067C785.758 83.7135 789.824 83.8899 792.715 85.0486C794.194 85.6412 795.315 86.4729 796.077 87.6223C796.841 88.7749 797.302 90.3362 797.302 92.4891C797.302 93.9041 796.884 96.2748 796.085 99.4535C795.294 102.604 794.151 106.463 792.75 110.813C789.948 119.512 786.129 130.128 782.064 140.876C778.658 149.748 774.971 158.604 771.561 166.797C770.503 169.34 769.471 171.819 768.483 174.214C764.324 184.293 760.906 192.952 759.555 198.603L759.106 200.482L760.899 199.764C765.175 198.053 770.093 193.564 775.255 187.397C780.448 181.191 785.997 173.153 791.513 164.162C802.439 146.354 813.289 124.727 821.065 105.997C821.156 105.996 821.229 105.999 821.288 106.006C821.312 106.008 821.331 106.011 821.347 106.014C821.368 106.103 821.385 106.255 821.385 106.508C821.385 107.886 820.809 110.513 819.664 114.171C818.533 117.785 816.886 122.291 814.829 127.366C810.714 137.514 804.976 149.893 798.49 161.884C792 173.882 784.782 185.455 777.713 194.015C774.177 198.295 770.704 201.791 767.404 204.209C764.091 206.636 761.049 207.907 758.353 207.907H758.342L758.331 207.907C754.911 207.98 751.479 206.15 748.867 203.412C746.251 200.67 744.613 197.179 744.613 194.163C744.613 192.742 744.944 190.857 745.547 188.554C746.146 186.263 746.997 183.62 748.002 180.702C748.743 178.546 749.571 176.235 750.438 173.814C751.905 169.717 753.486 165.304 754.954 160.796ZM754.659 145.619L754.664 145.609L754.669 145.599C755.545 143.705 756.455 141.778 757.371 139.84C759.555 135.218 761.768 130.533 763.606 126.095C766.203 119.823 768.128 113.866 768.132 109.1C768.255 104.763 767.298 101.214 765.687 98.7149C764.076 96.2155 761.76 94.7118 759.238 94.7118C757.632 94.7118 756.081 95.5344 754.449 97.2125C752.821 98.8859 751.009 101.515 748.86 105.377C744.558 113.11 738.78 126.032 730.364 146.815C725.875 157.737 722.396 168.721 720.189 177.824C719.086 182.376 718.298 186.469 717.861 189.857C717.429 193.217 717.329 195.974 717.66 197.805L717.892 199.089L719.072 198.531C721.475 197.395 724.096 195.079 726.842 191.95C729.605 188.802 732.561 184.751 735.622 180.045C741.743 170.633 748.327 158.529 754.659 145.619Z" stroke="#FAE6A7" stroke-width="2"/>
<path d="M825.715 88.9696L825.882 87.4059L824.396 87.918C819.561 89.5827 815.968 90.1193 813.364 90.1193C811.353 90.1193 810.172 89.765 809.514 89.2973C808.923 88.8773 808.646 88.2869 808.646 87.4133C808.646 86.5442 808.786 85.6214 809.068 84.7253C812.59 84.79 816.04 84.5003 819.338 84.1893C819.719 84.1534 820.097 84.1172 820.474 84.0812C823.601 83.7824 826.57 83.4988 829.393 83.4988C834.205 83.4988 837.915 84.6351 840.404 86.6935C842.865 88.7283 844.26 91.7678 844.26 95.8727C844.26 100.183 842.303 107.149 839.203 115.685C836.12 124.174 831.967 134.059 827.687 144.144C827.264 145.141 826.839 146.14 826.414 147.14C822.548 156.24 818.656 165.4 815.444 173.709C811.888 182.911 809.133 191.152 808.188 197.149L807.862 199.22L809.677 198.17C814.836 195.186 820.275 190.065 825.736 183.585C831.207 177.093 836.745 169.182 842.093 160.56C852.674 143.5 862.546 123.594 869.715 106.239C869.805 106.237 869.878 106.241 869.937 106.247C869.961 106.25 869.98 106.253 869.996 106.256C870.017 106.345 870.034 106.495 870.034 106.746C870.024 108.101 869.419 110.706 868.225 114.35C867.046 117.951 865.334 122.447 863.201 127.515C858.936 137.648 853.006 150.022 846.339 162.015C839.668 174.013 832.278 185.593 825.097 194.16C821.506 198.444 817.992 201.944 814.672 204.365C811.337 206.797 808.297 208.067 805.632 208.067C801.145 208.067 796.668 206.471 793.327 203.886C789.984 201.299 787.865 197.799 787.865 194.002C787.865 188.125 790.065 179.702 793.474 170.009C796.872 160.349 801.425 149.549 806.045 138.962C807.544 135.529 809.05 132.116 810.526 128.772C813.593 121.823 816.527 115.174 818.982 109.267C820.801 104.888 822.366 100.898 823.532 97.474C824.694 94.0657 825.482 91.1594 825.715 88.9696ZM837.518 61.389L837.52 61.385C840.482 55.9406 845.095 47.1854 849.801 30.497C855.411 30.5738 860.202 30.6593 863.651 31.6464C865.43 32.1556 866.745 32.8781 867.616 33.873C868.471 34.8485 868.987 36.1849 868.987 38.1071C868.987 40.1044 868.266 42.2342 866.961 44.4624C865.658 46.6875 863.806 48.9547 861.626 51.2089C857.265 55.7211 851.706 60.0681 846.902 63.8233C846.122 64.4233 845.355 65.0094 844.61 65.5786C841.619 67.8646 838.982 69.8798 837.279 71.4461C836.597 71.3136 836.066 71.0765 835.691 70.7181C835.263 70.3091 834.903 69.6128 834.903 68.3192C834.903 66.5979 835.732 64.6376 837.518 61.389Z" stroke="#FAE6A7" stroke-width="2"/>
<path d="M873.979 140.27L873.433 140.428L873.289 140.978C869.337 156.064 866.816 169.284 866.571 180.037C866.328 187.774 867.537 193.991 870.454 198.197L870.947 198.907L871.721 198.523C877.126 195.84 883.431 189.868 888.38 182.091C893.338 174.299 897.003 164.588 897.003 154.363C897.003 149.314 895.662 144.644 893.754 140.906C895.196 139.49 897.218 138.767 899.708 138.767C904.84 138.767 911.454 142.054 914.978 147.495L915.423 148.182L916.184 147.881C928.208 143.136 940.657 133.619 952.003 106.34C952.019 106.359 952.034 106.379 952.048 106.401C952.229 106.67 952.431 107.286 952.431 108.602C952.431 115.935 948.132 125.489 941.568 134.204C935.02 142.897 926.369 150.553 917.921 154.169L917.314 154.429V155.088C917.314 168.769 911.08 181.954 902.277 191.763C893.456 201.591 882.204 207.869 872.314 207.987C866.617 208.025 860.172 206.364 855.165 201.934C850.183 197.525 846.502 190.267 846.502 178.855C846.502 160.265 853.619 131.397 864.484 101.288C873.742 75.6832 884.341 50.5388 896.707 31.81C909.105 13.0314 923.081 0.999512 939.014 0.999512C945.61 0.999512 950.489 3.0259 953.708 6.00996C956.93 8.99685 958.553 12.998 958.553 17.0794C958.553 22.9266 955.752 32.8466 950.829 44.7285C945.925 56.5641 938.973 70.2128 930.793 83.4639C922.612 96.7173 913.22 109.547 903.444 119.759C893.649 129.99 883.553 137.503 873.979 140.27ZM876.44 130.551L875.484 133.736L878.038 131.606C890.075 121.566 905.614 98.9001 918.177 75.663C924.47 64.0225 930.04 52.1949 934.069 41.6696C938.087 31.1745 940.614 21.8739 940.739 15.326L940.739 15.3165V15.307C940.739 13.3981 940.553 11.6354 940.182 10.2283C939.997 9.52495 939.758 8.8814 939.453 8.34445C939.153 7.81449 938.753 7.32554 938.216 7.02341L937.791 6.78455L937.341 6.97159C931.723 9.30789 926.552 14.1763 921.719 20.7495C916.878 27.3345 912.315 35.7155 907.942 45.2011C900.012 62.403 892.65 83.3677 885.375 104.083C884.63 106.207 883.885 108.329 883.14 110.443C880.641 117.458 878.38 124.082 876.44 130.551Z" stroke="#FAE6A7" stroke-width="2"/>
<path d="M956.996 89.6645L957.238 88.1364L955.745 88.5436C951.373 89.7363 948.001 90.2002 945.376 90.2002C943.132 90.2002 941.767 89.7887 940.985 89.229C940.263 88.712 939.933 87.9932 939.933 87.0108C939.933 86.3453 940.071 85.4606 940.355 84.5645C943.877 84.6292 947.327 84.3395 950.625 84.0285C951.006 83.9926 951.385 83.9564 951.761 83.9204C954.889 83.6216 957.857 83.338 960.68 83.338C963.593 83.338 967.179 84.2701 970.018 86.6315C972.822 88.9644 974.983 92.7621 974.983 98.6928C974.983 100.266 974.486 102.638 973.549 105.704C972.62 108.743 971.288 112.375 969.68 116.43C967.057 123.045 963.721 130.735 960.245 138.746C959.458 140.56 958.664 142.39 957.869 144.228C953.571 154.172 949.26 164.336 946.024 173.275C942.805 182.169 940.591 189.997 940.591 195.21L940.591 195.273C940.591 196.194 940.591 197.048 940.875 197.995L941.1 198.746L941.882 198.707C944.662 198.568 947.748 196.724 950.943 193.85C954.177 190.942 957.682 186.829 961.307 181.851C968.561 171.889 976.383 158.34 983.566 143.686L983.569 143.681C992.145 125.962 999.363 106.746 1007.19 84.486C1010.14 83.8711 1013.08 83.6602 1015.61 83.6602C1018.41 83.6602 1020.6 84.0795 1022.08 84.9587C1023.46 85.7883 1024.28 87.0667 1024.28 89.1055C1024.28 90.6505 1023.85 93.2249 1023.05 96.6481C1022.25 100.045 1021.09 104.202 1019.65 108.872C1016.78 118.212 1012.82 129.569 1008.48 140.952C1004.11 152.143 999.302 163.444 995.138 173.234C994.932 173.719 994.728 174.2 994.525 174.678C990.236 184.765 986.687 193.158 985.179 197.888L984.535 199.909L986.504 199.12C992.876 196.566 999.055 191.687 1004.96 185.305C1010.87 178.917 1016.56 170.973 1021.93 162.218C1032.57 144.886 1042.03 124.287 1049.65 106.078C1049.74 106.076 1049.81 106.08 1049.87 106.086C1049.9 106.089 1049.92 106.092 1049.93 106.095C1049.95 106.184 1049.97 106.336 1049.97 106.588C1049.97 107.975 1049.42 110.609 1048.33 114.264C1047.25 117.878 1045.66 122.383 1043.67 127.456C1039.68 137.602 1034.05 149.976 1027.52 161.962C1020.98 173.955 1013.56 185.518 1005.98 194.069C1002.19 198.344 998.388 201.838 994.663 204.257C990.936 206.679 987.344 207.987 983.957 207.987C976.703 207.987 969.09 202.33 969.09 194.405C969.09 192.118 969.79 189.144 971.022 185.446C972.249 181.764 973.968 177.464 975.945 172.541L974.136 171.695C967.511 184.025 961.196 193.347 955.378 199.573C949.527 205.836 944.341 208.793 939.98 208.793C936.192 208.793 931.567 207.724 927.919 205.231C924.312 202.766 921.649 198.91 921.649 193.196C921.649 186.877 923.645 178.362 926.741 168.794C929.829 159.25 933.979 148.754 938.226 138.502C940.044 134.114 941.882 129.762 943.661 125.552C946.029 119.95 948.29 114.599 950.255 109.744C953.689 101.262 956.29 94.1287 956.996 89.6645Z" stroke="#FAE6A7" stroke-width="2"/>
<path d="M1084.48 139.265L1084.49 139.257C1087.04 134.082 1089.68 128.941 1092.2 124.045C1094.87 118.847 1097.4 113.925 1099.53 109.533C1101.62 105.239 1103.37 101.375 1104.58 98.138C1105.76 94.9444 1106.47 92.2113 1106.34 90.2439L1106.28 89.4467L1105.49 89.3251C1104.6 89.1879 1103.65 89.4726 1102.73 89.9406C1101.8 90.4183 1100.77 91.1497 1099.68 92.0815C1097.49 93.9472 1094.91 96.719 1092.06 100.196C1086.34 107.159 1079.42 117.07 1072.2 128.543C1057.87 151.34 1042.3 180.408 1032.59 204.993C1030.74 205.427 1028.82 205.811 1026.65 205.811C1023.77 205.811 1020.99 205.264 1018.97 204.161C1016.98 203.075 1015.81 201.514 1015.81 199.399C1015.81 195.391 1017.48 188.607 1020.3 179.867C1023.1 171.173 1026.98 160.68 1031.29 149.321C1034.57 140.741 1038.14 132.123 1041.54 123.907C1042.35 121.956 1043.15 120.027 1043.93 118.127C1048.01 108.243 1051.67 99.1206 1054.02 91.6615L1054.56 89.941L1052.81 90.3928C1048.27 91.5685 1044.91 91.5694 1042.43 91.5694C1040.22 91.5694 1038.93 91.0917 1038.18 90.4825C1037.46 89.8993 1037.1 89.0885 1036.99 88.0874C1036.99 86.9911 1037.15 85.8423 1037.45 84.7259C1040.96 84.7877 1044.4 84.499 1047.68 84.1891C1048.06 84.1532 1048.44 84.1171 1048.82 84.0811C1051.94 83.7823 1054.91 83.4987 1057.74 83.4987C1061.77 83.4987 1064.97 84.5081 1067.14 86.4304C1069.3 88.3349 1070.59 91.2575 1070.59 95.3892C1070.59 96.9737 1070.1 99.4874 1069.19 102.792C1068.28 106.068 1066.99 110.032 1065.43 114.475C1062.97 121.494 1059.87 129.668 1056.65 138.158C1055.79 140.417 1054.93 142.698 1054.06 144.987L1055.87 145.829C1065.26 129.095 1074.25 113.08 1082.84 101.243C1087.13 95.326 1091.29 90.5 1095.31 87.1617C1099.34 83.816 1103.13 82.0485 1106.71 82.0485C1110.88 82.0485 1115.89 83.0681 1119.81 85.421C1123.71 87.7524 1126.49 91.3483 1126.49 96.5977C1126.49 98.5513 1125.99 101.209 1125.04 104.497C1124.09 107.772 1122.7 111.611 1120.94 115.908C1117.43 124.501 1112.5 134.866 1106.78 146.095L1106.78 146.095L1106.78 146.105C1105.29 149.103 1103.78 152.113 1102.28 155.096C1098.3 163.02 1094.41 170.751 1091.47 177.542C1089.45 182.219 1087.86 186.498 1086.99 190.128C1086.14 193.711 1085.94 196.865 1086.94 199.157L1087.38 200.151L1088.34 199.634C1093.63 196.77 1099.15 191.736 1104.67 185.289C1110.21 178.831 1115.79 170.9 1121.2 162.182C1131.91 144.919 1141.96 124.503 1149.6 106.158C1149.7 106.156 1149.77 106.16 1149.83 106.167C1149.85 106.169 1149.87 106.172 1149.89 106.175C1149.91 106.264 1149.93 106.416 1149.93 106.668C1149.93 108.051 1149.37 110.682 1148.24 114.337C1147.13 117.95 1145.51 122.455 1143.46 127.528C1139.37 137.673 1133.6 150.047 1126.9 162.032C1120.19 174.025 1112.57 185.588 1104.79 194.139C1096.96 202.747 1089.17 208.067 1082.14 208.067C1078.3 208.067 1074.22 206.005 1071.08 202.535C1067.95 199.077 1065.82 194.296 1065.82 189.006C1065.82 184.902 1067.79 177.77 1071.15 168.918C1074.5 160.117 1079.18 149.757 1084.48 139.265Z" stroke="#FAE6A7" stroke-width="2"/>
<path d="M1177.81 160.877L1175.97 160.117C1169.15 173.629 1163 185.689 1157.09 194.375C1154.13 198.717 1151.27 202.164 1148.45 204.517C1145.63 206.869 1142.94 208.067 1140.29 208.067C1136.28 208.067 1131.56 206.1 1127.83 202.708C1124.11 199.329 1121.48 194.627 1121.48 189.248C1121.48 175.339 1126.9 154.936 1134.3 136.446L1134.3 136.44C1139.97 121.994 1146.24 108.161 1153.16 97.9547C1160.13 87.6834 1167.54 81.4041 1175.41 81.4041C1183.48 81.4041 1193.47 88.6266 1194.71 102.008L1196.63 102.294C1198.2 98.462 1199.69 94.5822 1201.08 90.9185C1202.03 88.4496 1202.93 86.0789 1203.8 83.887C1208.62 83.7938 1212.68 83.9703 1215.57 85.129C1217.05 85.7216 1218.17 86.5533 1218.94 87.7027C1219.7 88.8552 1220.16 90.4166 1220.16 92.5695C1220.16 93.9845 1219.74 96.3552 1218.94 99.5339C1218.15 102.684 1217.01 106.544 1215.61 110.894C1212.81 119.592 1208.99 130.208 1204.92 140.956C1201.53 149.812 1197.81 158.754 1194.36 167.032C1193.44 169.243 1192.54 171.406 1191.67 173.508C1187.56 183.448 1184.13 192.058 1182.66 197.697L1182.16 199.629L1184 198.875C1189.65 196.575 1194.91 192.052 1199.6 186.576C1204.18 181.224 1208.28 174.9 1211.71 168.687C1212.37 168.657 1212.78 168.753 1213.03 168.916C1213.26 169.064 1213.56 169.412 1213.56 170.473C1213.54 172.834 1212.4 176.373 1210.37 180.444C1208.36 184.482 1205.52 188.923 1202.25 193.047C1198.97 197.174 1195.27 200.954 1191.53 203.692C1187.77 206.445 1184.08 208.067 1180.81 208.067C1178.05 208.067 1174.71 206.446 1172.01 203.811C1169.33 201.186 1167.47 197.722 1167.47 194.243C1167.47 192.823 1167.8 190.938 1168.41 188.634C1169 186.343 1169.86 183.7 1170.86 180.782C1171.6 178.627 1172.43 176.316 1173.3 173.895C1174.76 169.797 1176.34 165.384 1177.81 160.877ZM1177.52 145.619L1177.52 145.609L1177.53 145.599C1178.4 143.705 1179.31 141.778 1180.23 139.839C1182.41 135.217 1184.63 130.532 1186.46 126.095C1189.06 119.822 1190.99 113.866 1190.99 109.1C1191.11 104.763 1190.16 101.214 1188.55 98.7147C1186.93 96.2152 1184.62 94.7115 1182.1 94.7115C1180.49 94.7115 1178.94 95.5341 1177.31 97.2122C1175.68 98.8857 1173.87 101.515 1171.72 105.377C1167.42 113.11 1161.64 126.032 1153.22 146.815C1148.73 157.737 1145.25 168.721 1143.05 177.824C1141.94 182.375 1141.16 186.469 1140.72 189.857C1140.29 193.217 1140.19 195.974 1140.52 197.805L1140.75 199.084L1141.93 198.533C1144.35 197.396 1146.98 195.08 1149.73 191.95C1152.5 188.801 1155.46 184.75 1158.51 180.044C1164.62 170.632 1171.19 158.528 1177.52 145.619Z" stroke="#FAE6A7" stroke-width="2"/>
<path d="M1231.79 174.699C1236.37 174.699 1240.77 175.72 1243.99 177.477C1247.22 179.244 1249.08 181.631 1249.08 184.334C1249.08 188.47 1246.4 194.31 1242.33 199.171C1238.26 204.041 1233.07 207.584 1228.33 207.584C1225.54 207.584 1222.18 206.113 1219.51 203.693C1216.83 201.279 1214.99 198.064 1214.99 194.727C1214.99 193.605 1215.42 191.775 1216.28 189.599C1217.13 187.45 1218.36 185.053 1219.91 182.818C1223.05 178.279 1227.24 174.699 1231.79 174.699Z" stroke="#FAE6A7" stroke-width="2"/>
<path d="M1321.33 104.533L1321.37 104.558C1321.47 104.628 1321.57 104.698 1321.67 104.768C1322.97 105.673 1324.26 106.562 1325.21 107.638C1326.29 108.855 1326.95 110.315 1326.95 112.308C1326.95 112.941 1326.77 113.731 1326.51 114.595C1326.24 115.48 1325.84 116.525 1325.35 117.701C1324.37 120.053 1322.98 122.987 1321.32 126.307C1318.75 131.439 1315.52 137.539 1312.15 143.911C1311.16 145.784 1310.16 147.681 1309.15 149.583C1304.73 157.968 1300.33 166.469 1297.02 173.624C1295.37 177.202 1294 180.426 1293.05 183.12C1292.09 185.846 1291.59 187.922 1291.59 189.248C1291.59 199.198 1299.46 208.057 1308.62 207.906L1308.62 207.906H1308.63C1315.73 207.906 1323.57 202.582 1331.46 193.976C1339.3 185.425 1346.97 173.861 1353.72 161.869C1360.47 149.884 1366.28 137.51 1370.4 127.365C1372.46 122.293 1374.09 117.787 1375.21 114.174C1376.34 110.519 1376.9 107.889 1376.9 106.507C1376.9 106.255 1376.88 106.103 1376.86 106.014C1376.85 106.011 1376.83 106.008 1376.8 106.006C1376.74 105.999 1376.67 105.996 1376.58 105.997C1368.78 124.706 1358.46 145.545 1347.5 162.992C1341.96 171.802 1336.25 179.766 1330.61 186.159C1324.97 192.539 1319.35 197.418 1313.98 199.98L1312.42 200.721L1312.55 199.004C1312.8 195.524 1314.6 190.069 1317.16 183.68C1319.74 177.248 1323.15 169.734 1326.73 162.078M1321.33 104.533L1327.64 162.501M1321.33 104.533L1321.29 104.511C1319.88 103.704 1318.58 102.66 1317.45 101.746C1317.29 101.62 1317.14 101.496 1316.99 101.376L1315.9 100.501L1315.42 101.819C1304.44 132.449 1293.2 158.681 1283.13 177.24C1278.09 186.524 1273.36 193.851 1269.12 198.842C1267 201.338 1265.03 203.22 1263.22 204.471C1261.41 205.727 1259.85 206.295 1258.53 206.295C1256.51 206.295 1254.96 205.455 1253.91 204.041C1252.89 202.659 1252.3 200.66 1252.35 198.229C1252.71 197.774 1253.07 197.319 1253.43 196.863C1267.45 178.998 1282.77 159.491 1311.88 94.5902L1312.04 94.2388L1311.92 93.8724C1311 91.0457 1310.76 87.9519 1310.76 83.7879C1310.76 70.8098 1313.28 61.7894 1316.86 56.0489C1320.43 50.3232 1325.04 47.8888 1329.33 47.8888C1333.47 47.8888 1337.69 50.0088 1340.22 54.0113C1334.8 61.6336 1328.52 71.4967 1320.47 87.2814L1320.46 87.2907L1320.46 87.3001C1319.22 89.8628 1318.67 91.4699 1318.67 93.9391C1318.67 95.0553 1318.87 96.0611 1319.37 96.8847C1319.88 97.7304 1320.65 98.2916 1321.62 98.5972M1321.33 104.533L1321.92 97.6452M1326.73 162.078C1326.73 162.078 1326.73 162.077 1326.74 162.076L1327.64 162.501M1326.73 162.078C1326.73 162.079 1326.73 162.079 1326.73 162.08L1327.64 162.501M1326.73 162.078C1327.03 161.437 1327.33 160.795 1327.63 160.152C1331.78 151.203 1336.02 142.068 1339.3 134.152C1341.06 129.909 1342.53 126.035 1343.56 122.741C1344.6 119.423 1345.17 116.78 1345.17 114.967C1345.17 112.202 1344.8 110.248 1344.05 108.753C1343.32 107.282 1342.17 106.161 1340.4 105.149C1338.61 104.123 1336.24 103.235 1333.11 102.221C1331.74 101.775 1330.24 101.309 1328.59 100.798C1328.37 100.73 1328.14 100.661 1327.92 100.59C1326 99.9977 1323.91 99.3443 1321.62 98.5972M1327.64 162.501C1327.94 161.857 1328.24 161.213 1328.54 160.567C1337.14 142.037 1346.17 122.596 1346.17 114.967C1346.17 105.195 1341.76 103.829 1328.88 99.8429C1326.79 99.1953 1324.48 98.4785 1321.92 97.6452M1321.62 98.5972C1321.62 98.5977 1321.62 98.5982 1321.62 98.5987L1321.92 97.6452M1321.62 98.5972C1321.61 98.5968 1321.61 98.5963 1321.61 98.5959L1321.92 97.6452" stroke="#FAE6A7" stroke-width="2"/>
<path d="M1380.98 95.5538L1380.99 95.5438L1380.99 95.5337C1382.28 93.5611 1383.95 91.8977 1386.24 90.7196C1388.54 89.5387 1391.51 88.8162 1395.46 88.8162C1396.45 88.8162 1397.37 88.8214 1398.2 89.0281L1398.81 89.181L1399.21 88.6951C1402.55 84.65 1407.21 81.6459 1412.53 81.6459C1425.59 81.6459 1439 90.3508 1439 104.413C1439 114.142 1435.35 129.335 1429.46 145.286C1423.58 161.213 1415.52 177.767 1406.8 190.205L1406.8 190.206C1397.77 203.126 1386.94 207.826 1378.95 207.826C1371.24 207.826 1364.06 205.224 1358.83 200.218C1353.6 195.221 1350.23 187.759 1350.23 177.889C1350.23 166.304 1353.94 151.472 1359.67 136.616C1365.4 121.776 1373.09 107.003 1380.98 95.5538ZM1378.64 200.108L1379.19 200.29L1379.62 199.895C1382.9 196.892 1386.95 191.334 1391.17 184.266C1395.4 177.175 1399.85 168.488 1403.9 159.163C1411.98 140.545 1418.53 119.244 1418.53 102.963C1418.53 98.8228 1417.9 95.9169 1416.49 93.8744C1415.05 91.7946 1412.92 90.7799 1410.36 90.1484L1409.81 90.0133L1409.41 90.4142C1401.45 98.4211 1391.98 115.825 1384.52 134.27C1377.06 152.724 1371.5 172.491 1371.5 185.301C1371.5 188.965 1372.02 192.219 1373.15 194.779C1374.29 197.359 1376.09 199.275 1378.64 200.108Z" stroke="#FAE6A7" stroke-width="2"/>
<path d="M63.8664 276.904C63.8664 279.263 63.0097 281.775 61.4753 284.393C59.943 287.007 57.7684 289.67 55.2167 292.312C50.11 297.599 43.6037 302.693 37.9968 307.05C36.8974 307.897 35.819 308.718 34.7808 309.507C31.4625 312.031 28.5536 314.243 26.6749 316.036C25.8258 315.867 25.1402 315.569 24.6485 315.102C24.0971 314.578 23.6611 313.719 23.6611 312.191C23.6611 310.143 24.6544 307.779 26.6831 303.964C30.1282 297.633 35.5443 287.349 40.9765 267.77C41.0223 267.771 41.0681 267.772 41.1139 267.773C47.7502 267.924 53.4147 268.054 57.4925 269.224C59.6012 269.83 61.1754 270.686 62.2245 271.877C63.2557 273.048 63.8664 274.64 63.8664 276.904Z" stroke="#FAE6A7" stroke-width="2"/>
<path d="M1215.13 58.057L1215.13 58.0573C1213.16 59.3558 1210.59 60.0192 1207.56 60.1713C1204.54 60.3232 1201.12 59.9617 1197.52 59.2702C1190.3 57.8863 1182.47 55.2124 1175.74 52.8725L1175.74 52.8725C1174.51 52.4444 1173.3 52.017 1172.13 51.6031C1168.13 50.1881 1164.58 48.9317 1162.01 48.3516C1161.69 47.5742 1161.57 46.8456 1161.7 46.1848C1161.85 45.436 1162.35 44.5998 1163.63 43.7834L1163.63 43.7782L1163.64 43.7728C1165.33 42.6508 1167.87 42.2512 1172.19 41.8425C1179.41 41.281 1190.96 40.1618 1210.25 33.9806C1210.29 34.033 1210.32 34.0853 1210.35 34.1375C1213.83 39.7204 1216.81 44.4938 1218.06 48.5243C1218.71 50.6139 1218.86 52.3969 1218.44 53.926C1218.02 55.4293 1217.03 56.8139 1215.13 58.057Z" stroke="#FAE6A7" stroke-width="2"/>
</svg>
